<svg width="366.225" height="91.6" viewBox="0 0 366.225 91.6" xmlns="http://www.w3.org/2000/svg"><g id="svgGroup" stroke-linecap="round" fill-rule="evenodd" font-size="9pt" stroke="#194280" stroke-width="0.25mm" fill="#194280" style="stroke:#194280;stroke-width:0.25mm;fill:#194280"><path d="M 208.934 36.774 A 56.187 56.187 0 0 0 209.3 30.5 A 38.592 38.592 0 0 0 209.164 27.29 A 45.334 45.334 0 0 0 208.15 20.9 Q 207 15.9 204.35 11.75 Q 201.7 7.6 197.5 4.9 Q 193.3 2.2 187.3 2.2 A 31.895 31.895 0 0 0 182.396 2.564 A 24.23 24.23 0 0 0 173.45 5.75 Q 167.6 9.3 163.8 14.9 A 38.039 38.039 0 0 0 162.178 17.512 A 41.778 41.778 0 0 0 158.15 27.55 Q 156.3 34.6 156.3 41.6 Q 156.3 43.3 156.45 45.25 Q 156.6 47.2 156.85 49.15 A 98.841 98.841 0 0 0 156.995 50.231 A 84.937 84.937 0 0 0 157.4 52.85 A 34.312 34.312 0 0 0 157.486 53.333 Q 157.756 54.783 158.1 55.9 A 4.587 4.587 0 0 0 158.194 56.132 Q 158.422 56.653 158.62 56.653 A 0.15 0.15 0 0 0 158.65 56.65 Q 158.878 56.604 158.815 55.937 A 4.472 4.472 0 0 0 158.8 55.8 Q 158.6 53.8 158.2 50.75 Q 157.8 47.7 157.8 44.7 A 50.981 50.981 0 0 1 158.039 39.816 A 60.757 60.757 0 0 1 159.5 31.3 Q 161.2 24.3 164.75 18.5 Q 168.3 12.7 173.8 8.9 A 20.676 20.676 0 0 1 180.082 5.977 A 25.454 25.454 0 0 1 186.9 5.1 A 25.061 25.061 0 0 1 187.178 5.102 Q 189.252 5.125 191.066 5.492 A 14.769 14.769 0 0 1 195.55 7.15 Q 199.1 9.2 201.4 12.55 A 22.696 22.696 0 0 1 202.725 14.737 A 25.745 25.745 0 0 1 204.85 20.2 Q 206 24.5 206.25 29.05 Q 206.5 33.6 205.95 38.05 A 64.684 64.684 0 0 1 205.359 41.908 A 49.196 49.196 0 0 1 204.4 46.1 A 31.302 31.302 0 0 1 204.217 46.753 Q 203.102 50.576 200.8 54.95 Q 198.3 59.7 194.75 63.85 Q 191.2 68 186.8 70.75 A 20.542 20.542 0 0 1 186.525 70.919 A 17.199 17.199 0 0 1 177.5 73.5 Q 172.8 73.5 169.7 70.95 A 17.344 17.344 0 0 1 167.523 68.809 A 19.9 19.9 0 0 1 164.7 64.4 A 27.341 27.341 0 0 1 163.246 60.619 A 34.289 34.289 0 0 1 162.1 55.3 Q 161.4 50.2 161.5 45.2 Q 161.6 40.2 162.4 35.65 A 57.293 57.293 0 0 1 162.814 33.521 Q 163.156 31.932 163.556 30.568 A 27.469 27.469 0 0 1 164.4 28.1 Q 165.9 24.5 168 21.15 A 30.925 30.925 0 0 1 168.265 20.735 A 27.634 27.634 0 0 1 172.85 15.3 Q 175.6 12.8 179 11.3 Q 182.4 9.8 186.3 9.8 A 15.19 15.19 0 0 1 189.273 10.078 A 10.807 10.807 0 0 1 193.9 12.15 Q 196.9 14.5 198.6 18 A 26.253 26.253 0 0 1 199.107 19.108 A 28.564 28.564 0 0 1 201 25.6 A 52.486 52.486 0 0 1 201.479 29.073 A 40.487 40.487 0 0 1 201.7 33.2 Q 201.7 36.9 201.15 40.45 Q 200.6 44 199.9 47.6 Q 199.7 48.5 199.75 48.95 A 0.398 0.398 0 0 0 199.757 48.991 Q 199.821 49.287 200.266 48.305 A 16.458 16.458 0 0 0 200.4 48 Q 202.4 43.8 203.2 39.35 Q 204 34.9 204 30.2 A 34.668 34.668 0 0 0 203.944 28.234 A 39.179 39.179 0 0 0 203.1 22.15 A 27.67 27.67 0 0 0 202.921 21.378 A 24.348 24.348 0 0 0 200.15 14.6 Q 198.1 11.2 194.8 9 A 12.707 12.707 0 0 0 190.317 7.163 A 18.052 18.052 0 0 0 186.6 6.8 A 24.706 24.706 0 0 0 184.603 6.879 A 20.024 20.024 0 0 0 175.6 9.75 Q 170.8 12.7 167.4 17.5 A 35.811 35.811 0 0 0 165.325 20.801 A 41.284 41.284 0 0 0 162.05 28.5 Q 160.1 34.7 159.5 41.1 A 56.351 56.351 0 0 0 159.252 46.362 A 53.96 53.96 0 0 0 159.75 53.7 A 44.301 44.301 0 0 0 160.672 58.506 A 34.306 34.306 0 0 0 162.85 64.7 Q 165.1 69.5 168.75 72.45 A 12.996 12.996 0 0 0 172.335 74.518 A 14.192 14.192 0 0 0 177.4 75.4 A 27.345 27.345 0 0 0 179.148 75.345 A 23.043 23.043 0 0 0 187.3 73.35 Q 191.8 71.3 195.35 67.85 Q 198.9 64.4 201.5 59.9 Q 204.1 55.4 205.85 50.4 Q 207.6 45.4 208.45 40.25 A 68.025 68.025 0 0 0 208.934 36.774 Z M 15.9 56.9 L 14.4 56.8 Q 13.941 57.872 13.217 59.589 A 1133.744 1133.744 0 0 0 12.75 60.7 Q 11.7 63.2 10.75 65.9 Q 9.8 68.6 9.05 71.1 Q 8.355 73.417 8.304 74.875 A 6.454 6.454 0 0 0 8.3 75.1 A 0.432 0.432 0 0 1 8.285 75.219 Q 8.247 75.352 8.111 75.387 A 0.442 0.442 0 0 1 8 75.4 Q 7.612 75.4 7.413 74.79 A 2.327 2.327 0 0 1 7.4 74.75 Q 7.2 74.1 7.05 73.3 Q 6.9 72.5 6.85 71.65 A 64.817 64.817 0 0 1 6.829 71.282 Q 6.8 70.73 6.8 70.5 A 30.454 30.454 0 0 1 7.216 65.581 A 36.764 36.764 0 0 1 7.7 63.15 A 37.891 37.891 0 0 1 9.14 58.377 A 32.088 32.088 0 0 1 10.1 56.1 L 8.8 55.9 Q 7.9 58.1 7.1 60.25 Q 6.3 62.4 5.7 64.7 A 1.034 1.034 0 0 1 5.688 64.849 Q 5.666 65.003 5.6 65.2 A 0.691 0.691 0 0 1 5.566 65.285 Q 5.469 65.482 5.303 65.402 A 0.314 0.314 0 0 1 5.3 65.4 A 2.285 2.285 0 0 1 5.13 64.933 Q 5.074 64.711 5.051 64.458 A 3.739 3.739 0 0 1 5.05 64.45 A 14.333 14.333 0 0 1 5.02 64.059 Q 5 63.75 5 63.5 Q 5 59.3 6.5 55.4 A 4.299 4.299 0 0 1 6.711 55.023 Q 6.941 54.659 7.172 54.508 A 0.594 0.594 0 0 1 7.5 54.4 Q 9.6 53.8 11.75 53.7 A 94.66 94.66 0 0 1 15.627 53.602 A 104.519 104.519 0 0 1 16.2 53.6 A 66.327 66.327 0 0 1 16.278 53.6 A 65.33 65.33 0 0 1 26.1 54.35 Q 31 55.1 35.9 55.1 A 25.079 25.079 0 0 0 38.439 54.977 A 19.634 19.634 0 0 0 40.3 54.7 L 40.1 53.1 Q 39 53.4 37.75 53.5 A 31.811 31.811 0 0 1 36.246 53.586 A 26.113 26.113 0 0 1 35.4 53.6 Q 31.5 53.6 27.35 52.8 A 90.665 90.665 0 0 1 20.355 51.17 A 82.176 82.176 0 0 1 19.4 50.9 A 0.733 0.733 0 0 0 19.256 50.791 Q 19.031 50.658 18.6 50.55 A 1.994 1.994 0 0 1 18.383 50.484 Q 18.167 50.403 18.073 50.291 A 0.289 0.289 0 0 1 18 50.1 Q 18 49.924 18.465 49.787 A 3.326 3.326 0 0 1 18.6 49.75 A 12.461 12.461 0 0 1 18.843 49.692 Q 19.244 49.6 19.4 49.6 Q 20.8 49.5 22.15 49.45 Q 23.5 49.4 24.9 49.4 Q 27.2 49.4 29.5 49.45 Q 31.8 49.5 34.2 49.5 L 36.7 49.5 A 30.778 30.778 0 0 0 38.746 49.434 A 27.442 27.442 0 0 0 39.2 49.4 L 39 48.3 L 37.7 48.3 Q 32.9 48.3 28.15 47.4 Q 23.4 46.5 18.6 46.5 A 28.599 28.599 0 0 0 14.965 46.72 Q 13.084 46.961 11.455 47.467 A 17.693 17.693 0 0 0 11.35 47.5 A 33.536 33.536 0 0 0 8.766 48.432 Q 7.216 49.069 5.95 49.8 A 26.622 26.622 0 0 0 4.262 50.856 Q 3.485 51.387 2.849 51.918 A 13.816 13.816 0 0 0 2.3 52.4 A 186.998 186.998 0 0 0 1.65 53.006 Q 0.845 53.761 0.4 54.201 A 23.513 23.513 0 0 0 0.3 54.3 L 0.1 54.4 Q 0.011 54.4 0.001 54.242 A 0.673 0.673 0 0 1 0 54.2 Q 0 54.117 0.069 54.034 A 0.497 0.497 0 0 1 0.1 54 A 21.856 21.856 0 0 1 2.52 50.249 A 18.431 18.431 0 0 1 4.5 48.15 A 16.076 16.076 0 0 1 8.75 45.414 A 20.005 20.005 0 0 1 10.9 44.6 Q 14.7 36.5 18.75 28.5 Q 22.8 20.5 27.3 12.7 Q 27.398 12.503 27.69 12.065 A 21.095 21.095 0 0 1 27.7 12.05 A 1.826 1.826 0 0 1 27.841 11.864 Q 28.012 11.667 28.183 11.617 A 0.415 0.415 0 0 1 28.3 11.6 A 0.451 0.451 0 0 1 28.352 11.661 Q 28.4 11.73 28.4 11.8 L 28.4 12 Q 28.4 12.665 28.331 13.054 A 2.175 2.175 0 0 1 28.3 13.2 Q 26.4 21.3 22.7 28.8 Q 19 36.3 15.1 43.6 L 17 43.5 Q 17.299 42.902 18.541 40.914 A 223.444 223.444 0 0 1 18.55 40.9 Q 19.8 38.9 21.25 36.75 Q 22.7 34.6 23.9 32.85 Q 24.925 31.355 25.294 31.137 A 0.221 0.221 0 0 1 25.4 31.1 L 25.5 31.4 A 1.687 1.687 0 0 1 25.471 31.676 Q 25.393 32.131 25.102 33.011 A 31.537 31.537 0 0 1 24.9 33.6 Q 24.3 35.3 23.5 37.3 Q 22.7 39.3 21.95 41.05 L 20.9 43.5 Q 21.5 43.5 22.1 43.55 Q 22.7 43.6 23.3 43.6 Q 25.1 40 27.15 36.05 Q 29.2 32.1 30.7 28 Q 32.2 23.9 32.75 19.7 A 20.236 20.236 0 0 0 32.923 17.07 A 20.091 20.091 0 0 0 32.1 11.4 A 3.603 3.603 0 0 1 32.088 11.667 Q 32.045 12.228 31.85 13.4 A 42.112 42.112 0 0 1 31.435 15.533 A 49.64 49.64 0 0 1 31.2 16.55 Q 30.8 18.2 30.4 19.45 A 6.925 6.925 0 0 1 30.25 19.874 Q 30.016 20.47 29.781 20.636 A 0.312 0.312 0 0 1 29.6 20.7 A 0.317 0.317 0 0 1 29.489 20.682 Q 29.311 20.616 29.35 20.302 A 0.929 0.929 0 0 1 29.35 20.3 Q 29.398 19.919 29.4 19.81 A 0.492 0.492 0 0 0 29.4 19.8 Q 29.4 17.2 29.75 14.65 Q 30.1 12.1 30.1 9.5 Q 30.1 6 29 2.7 A 0.278 0.278 0 0 0 28.99 2.64 Q 28.952 2.493 28.783 2.059 A 28.601 28.601 0 0 0 28.7 1.85 Q 28.4 1.1 28.9 1.1 Q 29.1 1.1 29.6 1.6 A 9.278 9.278 0 0 1 30.435 2.568 Q 30.824 3.083 31.205 3.709 A 18.138 18.138 0 0 1 31.55 4.3 A 32.939 32.939 0 0 1 32.995 7.228 A 37.154 37.154 0 0 1 33.3 7.95 Q 34.1 9.9 34.8 11.8 Q 35.483 13.654 35.88 14.937 A 34.156 34.156 0 0 1 35.9 15 Q 37.2 19.3 38.05 23.65 Q 38.9 28 39.55 32.35 Q 40.2 36.7 40.9 41.1 Q 41.6 45.5 42.5 49.8 Q 43.4 54 44.65 58 Q 45.9 62 47.7 65.6 Q 49.5 69.2 51.85 72.25 Q 54.2 75.3 57.3 77.6 A 3.764 3.764 0 0 1 57.431 77.737 Q 57.778 78.122 57.65 78.25 Q 57.522 78.378 56.918 78.031 A 6.949 6.949 0 0 1 56.7 77.9 A 41.8 41.8 0 0 0 56.252 77.659 Q 55.513 77.267 55.2 77.15 A 2.438 2.438 0 0 1 54.992 77.058 Q 54.559 76.847 53.7 76.3 A 17.715 17.715 0 0 1 49.935 73.332 A 20.406 20.406 0 0 1 49.3 72.65 Q 47.3 70.4 45.7 67.7 Q 44.1 65 42.85 61.95 Q 41.6 58.9 40.7 55.9 A 9.566 9.566 0 0 1 37.635 57.182 A 12.293 12.293 0 0 1 35.95 57.45 Q 33.2 57.7 30.9 57.7 Q 28 57.7 25.15 57.5 Q 22.3 57.3 19.4 57.3 Q 16.6 62.5 14.15 67.35 Q 11.7 72.2 10.3 76.4 A 0.413 0.413 0 0 1 10.295 76.456 Q 10.278 76.577 10.2 76.85 Q 10.1 77.2 9.9 77.2 A 0.224 0.224 0 0 1 9.698 77.072 Q 9.601 76.902 9.6 76.508 A 3.266 3.266 0 0 1 9.6 76.5 L 9.6 75.6 A 19.614 19.614 0 0 1 10.014 71.711 Q 10.378 69.916 11.06 67.967 A 36.334 36.334 0 0 1 11.55 66.65 Q 13.5 61.7 15.9 56.9 Z M 142.1 91.5 L 142.2 91.6 L 141.9 91.6 Q 141.8 91.6 141.7 91.5 A 19.516 19.516 0 0 1 138.729 89.088 A 16.476 16.476 0 0 1 137.25 87.4 A 18.178 18.178 0 0 1 135.377 84.392 A 15.537 15.537 0 0 1 134.65 82.65 A 18.361 18.361 0 0 1 133.661 77.913 A 17.265 17.265 0 0 1 133.65 77.75 A 21.434 21.434 0 0 1 133.609 76.527 Q 133.605 75.425 133.723 74.424 A 14.203 14.203 0 0 1 133.9 73.3 A 15.285 15.285 0 0 1 130.417 73.708 A 14.738 14.738 0 0 1 127.95 73.5 A 18.564 18.564 0 0 1 123.052 71.975 A 17.35 17.35 0 0 1 122.5 71.7 A 2.045 2.045 0 0 1 122.118 71.494 Q 121.936 71.371 121.748 71.199 A 4.794 4.794 0 0 1 121.45 70.9 A 7.402 7.402 0 0 1 121.298 70.729 Q 120.915 70.285 121 70.2 L 122.55 70.45 A 92.364 92.364 0 0 0 124.145 70.692 Q 124.988 70.813 125.925 70.934 A 150.426 150.426 0 0 0 126.05 70.95 Q 128 71.2 129.95 71.35 Q 131.717 71.486 132.622 71.417 A 5.248 5.248 0 0 0 132.8 71.4 A 3.525 3.525 0 0 1 133.236 71.286 A 4.18 4.18 0 0 1 133.45 71.25 A 2.528 2.528 0 0 0 133.721 71.195 Q 133.85 71.161 133.995 71.113 A 5.804 5.804 0 0 0 134.3 71 A 4.487 4.487 0 0 1 134.361 70.249 A 3.999 3.999 0 0 1 134.4 70.05 A 5.62 5.62 0 0 1 134.554 69.498 A 7.102 7.102 0 0 1 134.7 69.1 A 17.737 17.737 0 0 1 131.068 69.554 Q 130.916 69.557 130.765 69.557 A 15.985 15.985 0 0 1 127.9 69.3 Q 124.6 68.7 122 66.5 Q 119.9 64.7 118.65 62.15 A 23.746 23.746 0 0 1 116.968 57.527 A 27.004 27.004 0 0 1 116.75 56.6 A 34.277 34.277 0 0 1 116.015 50.755 A 37.681 37.681 0 0 1 116 50.35 Q 115.9 47.1 116.2 43.9 A 47.341 47.341 0 0 1 118.005 34.25 A 52.569 52.569 0 0 1 118.2 33.6 Q 119.8 28.4 122.45 23.95 A 32.696 32.696 0 0 1 128.074 16.87 A 30.656 30.656 0 0 1 128.75 16.25 Q 132.4 13 137 11.7 A 13.612 13.612 0 0 1 140.257 11.196 Q 140.536 11.186 140.82 11.186 A 16.324 16.324 0 0 1 141.5 11.2 A 14.457 14.457 0 0 1 145.269 11.846 A 13.34 13.34 0 0 1 146 12.1 Q 148.1 12.9 149.65 14.35 A 6.417 6.417 0 0 1 151.587 17.931 A 7.856 7.856 0 0 1 151.6 18 A 8.295 8.295 0 0 1 151.779 19.695 A 7.891 7.891 0 0 1 151.2 22.65 A 11.893 11.893 0 0 1 148.824 26.42 A 11.466 11.466 0 0 1 148.7 26.55 A 9.662 9.662 0 0 1 146.428 28.307 A 8.7 8.7 0 0 1 145.1 28.9 Q 144.167 29.227 143.277 29.227 A 4.82 4.82 0 0 1 141.3 28.8 A 2.734 2.734 0 0 1 141.16 28.756 Q 140.644 28.578 141 28.4 A 0.616 0.616 0 0 1 141.06 28.374 Q 141.216 28.316 141.3 28.4 Q 141.383 28.483 141.534 28.497 A 0.703 0.703 0 0 0 141.6 28.5 A 3.329 3.329 0 0 0 142.148 28.544 Q 143.002 28.544 143.993 28.135 A 7.486 7.486 0 0 0 144.3 28 A 9.002 9.002 0 0 0 146.613 26.429 A 10.529 10.529 0 0 0 147.05 26 A 10.069 10.069 0 0 0 149.026 23.005 A 11.34 11.34 0 0 0 149.05 22.95 Q 149.586 21.7 149.586 20.425 A 6.222 6.222 0 0 0 149.5 19.4 A 5.639 5.639 0 0 0 148.557 17.19 A 5.507 5.507 0 0 0 148.25 16.8 A 6.789 6.789 0 0 0 146.642 15.451 A 8.461 8.461 0 0 0 145.8 15 A 10.029 10.029 0 0 0 143.47 14.253 A 12.136 12.136 0 0 0 142.45 14.1 A 11.727 11.727 0 0 0 141.189 14.033 Q 140.242 14.033 139.236 14.177 A 16.12 16.12 0 0 0 138.5 14.3 A 14.689 14.689 0 0 0 132.818 16.725 A 17.935 17.935 0 0 0 131.6 17.65 A 27.503 27.503 0 0 0 127.11 22.411 A 32.428 32.428 0 0 0 125.9 24.15 A 40.624 40.624 0 0 0 122.369 30.959 A 46.587 46.587 0 0 0 121.7 32.7 A 43.975 43.975 0 0 0 119.409 42.027 A 41.126 41.126 0 0 0 119.4 42.1 A 48.734 48.734 0 0 0 118.909 48.02 A 44.096 44.096 0 0 0 118.9 48.9 A 38.735 38.735 0 0 0 119.115 53.059 A 32.65 32.65 0 0 0 119.4 55.1 A 28.272 28.272 0 0 0 120.105 58.189 A 22.592 22.592 0 0 0 120.85 60.35 A 13.998 13.998 0 0 0 122.054 62.696 A 11.255 11.255 0 0 0 123.3 64.3 Q 125.2 66.3 128.25 67.15 Q 131.018 67.921 134.403 67.581 A 22.91 22.91 0 0 0 135.1 67.5 Q 136.1 63.6 137.45 60 A 1162.831 1162.831 0 0 0 139.893 53.426 A 1060.459 1060.459 0 0 0 140.05 53 A 82.243 82.243 0 0 0 142.086 46.713 A 75.547 75.547 0 0 0 142.2 46.3 Q 143.1 43 143.1 39.8 A 1.374 1.374 0 0 1 143.103 39.706 Q 143.113 39.564 143.155 39.52 A 0.06 0.06 0 0 1 143.2 39.5 Q 143.3 39.5 143.45 39.8 Q 143.573 40.047 143.595 40.158 A 0.221 0.221 0 0 1 143.6 40.2 A 17.438 17.438 0 0 1 144.473 45.608 A 17.122 17.122 0 0 1 144.35 47.65 Q 143.9 51.4 142.65 55.3 A 126.432 126.432 0 0 1 140.195 62.24 A 138.64 138.64 0 0 1 139.8 63.25 Q 138.2 67.3 137.2 71.6 A 16.668 16.668 0 0 0 136.839 73.387 Q 136.702 74.308 136.636 75.346 A 29.062 29.062 0 0 0 136.6 76.05 Q 136.5 78.6 136.95 81.25 A 22.032 22.032 0 0 0 138.479 86.337 A 24.383 24.383 0 0 0 138.55 86.5 Q 139.7 89.1 141.8 91.1 Q 141.9 91.3 142.1 91.5 Z M 329.6 40.9 L 331.8 38.1 A 2156.333 2156.333 0 0 0 324.244 21.333 A 1976.739 1976.739 0 0 0 323.75 20.25 Q 319.8 11.6 315.1 5.3 A 3.304 3.304 0 0 1 314.983 5.135 Q 314.811 4.873 314.801 4.72 A 0.287 0.287 0 0 1 314.8 4.7 A 0.21 0.21 0 0 1 314.84 4.643 Q 314.941 4.544 315.155 4.671 A 1.031 1.031 0 0 1 315.2 4.7 Q 315.493 4.896 315.691 4.996 A 2.276 2.276 0 0 0 315.7 5 A 32.524 32.524 0 0 1 320.867 10.27 A 36.396 36.396 0 0 1 321.35 10.9 A 63.933 63.933 0 0 1 325.545 17.271 A 70.397 70.397 0 0 1 326.1 18.25 Q 328.3 22.2 330.2 26.55 Q 332.1 30.9 334 35.3 L 335.7 33.2 Q 335.2 32.2 334.1 30.05 A 131.807 131.807 0 0 0 333.061 28.064 Q 332.523 27.055 331.914 25.949 A 220.571 220.571 0 0 0 331.5 25.2 Q 330 22.5 328.35 19.5 Q 326.7 16.5 325 13.85 Q 323.3 11.2 321.8 9.1 A 28.832 28.832 0 0 0 320.945 7.959 Q 319.973 6.733 319.2 6.1 Q 318.427 5.52 318.681 5.314 A 0.25 0.25 0 0 1 318.7 5.3 A 0.281 0.281 0 0 1 318.769 5.277 Q 319.002 5.229 319.6 5.4 A 11.084 11.084 0 0 1 321.266 6.248 Q 322.085 6.75 322.942 7.434 A 22.421 22.421 0 0 1 323.85 8.2 A 39.026 39.026 0 0 1 327.618 12.064 A 43.64 43.64 0 0 1 328.15 12.7 Q 330.2 15.2 331.9 17.9 Q 333.268 20.073 334.183 21.922 A 29.674 29.674 0 0 1 334.6 22.8 L 338.1 30.3 L 339.2 29.1 Q 337.2 24.6 334.9 20 A 63.694 63.694 0 0 0 329.599 11.275 A 69.81 69.81 0 0 0 329.4 11 Q 329.1 10.5 329 10.5 A 0.065 0.065 0 0 1 328.984 10.498 Q 328.919 10.481 329.1 10.3 L 329.9 10.7 Q 331.859 12.029 333.916 14.558 A 37.815 37.815 0 0 1 335.7 16.95 A 85.428 85.428 0 0 1 339.858 23.642 A 99.834 99.834 0 0 1 341.4 26.5 Q 346.5 20.5 351.6 14.05 A 106.873 106.873 0 0 0 356.095 7.954 Q 358.183 4.89 359.796 1.987 A 65.402 65.402 0 0 0 359.9 1.8 L 360.1 1.4 A 0.21 0.21 0 0 1 360.14 1.343 Q 360.241 1.244 360.455 1.371 A 1.031 1.031 0 0 1 360.5 1.4 A 0.197 0.197 0 0 1 360.544 1.472 Q 360.586 1.584 360.55 1.8 Q 360.5 2.1 360.5 2.2 Q 359 7.7 355.7 13.05 Q 352.4 18.4 348.3 23.65 Q 344.2 28.9 339.7 34.05 A 205.513 205.513 0 0 0 332.284 43.024 A 186.941 186.941 0 0 0 331.3 44.3 Q 328.9 47.5 326.55 51.15 Q 324.2 54.8 322.3 58.65 Q 320.4 62.5 319 66.45 Q 317.6 70.4 317 74.2 Q 316.8 75.1 316.7 75.1 A 0.411 0.411 0 0 1 316.517 74.914 Q 316.471 74.824 316.45 74.7 A 4.666 4.666 0 0 1 316.422 74.506 Q 316.411 74.418 316.405 74.342 A 2.029 2.029 0 0 1 316.4 74.2 Q 316.1 69.6 317 65.25 Q 317.9 60.9 319.75 56.7 Q 321.6 52.5 324.15 48.55 Q 326.7 44.6 329.6 40.9 Z M 75.832 10.464 A 25.81 25.81 0 0 0 74.8 3.2 Q 74.7 3.1 74.6 2.75 A 2.076 2.076 0 0 0 74.596 2.737 Q 74.507 2.432 74.418 2.486 A 0.094 0.094 0 0 0 74.4 2.5 Q 74.317 2.5 74.166 2.912 A 6.521 6.521 0 0 0 74.1 3.1 Q 74.138 4.763 74.026 6.483 A 45.078 45.078 0 0 1 73.25 12.3 A 117.217 117.217 0 0 1 72.744 14.722 A 134.064 134.064 0 0 1 70.85 22.25 A 363.845 363.845 0 0 1 70.484 23.542 A 401.326 401.326 0 0 1 67.7 32.85 Q 66 38.3 64.7 43.8 Q 63.2 50.1 62.9 56.4 Q 62.6 62.7 64.8 68.4 Q 66.2 67.2 67.95 66.65 Q 69.7 66.1 71.6 65.95 Q 73.5 65.8 75.45 65.9 A 68.953 68.953 0 0 1 76.416 65.956 A 61.612 61.612 0 0 1 79.2 66.2 Q 84 66.7 88.45 66.95 A 24.016 24.016 0 0 0 89.797 66.988 A 24.618 24.618 0 0 0 97.3 65.8 Q 97.5 65.7 97.8 65.6 A 0.822 0.822 0 0 0 97.91 65.555 Q 98.1 65.459 98.1 65.3 Q 98.1 65.1 97.3 64.9 Q 95 64.5 91.9 63.9 A 42.818 42.818 0 0 0 90.649 63.677 A 37.589 37.589 0 0 0 85.9 63.2 A 11.457 11.457 0 0 1 85.722 63.198 Q 85.253 63.191 84.15 63.15 A 255.001 255.001 0 0 0 83.262 63.119 Q 82.238 63.084 81 63.05 A 40.804 40.804 0 0 0 80.925 63.048 Q 79.908 63.022 78.781 63.043 A 62.424 62.424 0 0 0 77.05 63.1 Q 74.9 63.2 73 63.5 Q 74.3 59.7 75.7 55.35 Q 77.1 51 78.2 46.8 Q 78.8 44.2 80 39.85 Q 81.2 35.5 82.1 30.85 Q 83 26.2 83.3 21.85 Q 83.497 18.995 83.091 16.851 A 10.715 10.715 0 0 0 82.5 14.8 Q 82.3 14.6 82.3 14.4 A 0.673 0.673 0 0 0 82.299 14.358 Q 82.289 14.2 82.2 14.2 A 0.25 0.25 0 0 0 82.028 14.26 Q 81.937 14.341 81.911 14.53 A 1.246 1.246 0 0 0 81.9 14.7 A 57.096 57.096 0 0 1 81.672 18.189 A 48.125 48.125 0 0 1 80.45 25.35 Q 79.2 30.3 77.8 35 Q 75.6 42.3 73.8 49.45 Q 72 56.6 71.5 63.8 A 8.696 8.696 0 0 0 71.36 63.829 A 7.784 7.784 0 0 0 70.55 64.05 A 11.655 11.655 0 0 0 70.348 64.119 Q 70.052 64.224 69.9 64.3 Q 69.788 64.019 69.738 63.769 A 1.91 1.91 0 0 1 69.7 63.4 A 4.201 4.201 0 0 0 69.696 63.233 Q 69.686 62.967 69.644 62.575 A 21.5 21.5 0 0 0 69.6 62.2 A 1.248 1.248 0 0 0 69.598 62.134 Q 69.589 61.965 69.539 61.613 A 22.365 22.365 0 0 0 69.5 61.35 L 69.3 60.05 A 11.734 11.734 0 0 0 69.287 59.967 Q 69.19 59.368 69.05 58.9 A 5.244 5.244 0 0 0 69.033 58.845 Q 68.928 58.509 68.849 58.427 A 0.071 0.071 0 0 0 68.8 58.4 A 0.485 0.485 0 0 0 68.432 58.569 Q 68.358 58.649 68.297 58.766 A 1.613 1.613 0 0 0 68.2 59 A 3.368 3.368 0 0 0 68.199 59.003 Q 68.062 59.415 67.972 60.014 A 12.03 12.03 0 0 0 67.9 60.6 Q 67.849 61.108 67.824 61.68 A 26.862 26.862 0 0 0 67.8 62.85 L 67.8 65.3 A 9.759 9.759 0 0 1 67.794 65.305 Q 67.397 65.602 67.05 65.8 A 1.293 1.293 0 0 0 66.853 65.94 Q 66.729 66.046 66.612 66.193 A 2.807 2.807 0 0 0 66.4 66.5 A 36.452 36.452 0 0 1 65.619 59.078 A 33.867 33.867 0 0 1 65.75 56.1 Q 66.2 51 67.4 45.8 Q 68.7 40.3 70.5 34.7 Q 72.3 29.1 73.75 23.7 A 71.569 71.569 0 0 0 74.26 21.684 A 63.429 63.429 0 0 0 75.7 13.15 A 27.786 27.786 0 0 0 75.832 10.464 Z M 239.391 31.379 A 77.222 77.222 0 0 0 238.6 25.1 Q 238.206 23.019 237.749 21.254 A 39.058 39.058 0 0 0 237 18.7 A 34.174 34.174 0 0 0 236.346 16.903 A 28.174 28.174 0 0 0 234.9 13.8 Q 233.7 11.6 232.15 9.75 A 52.226 52.226 0 0 0 230.708 8.103 A 66.302 66.302 0 0 0 228.6 5.9 Q 228.3 5.6 227.9 5.4 A 1.247 1.247 0 0 0 227.787 5.35 Q 227.471 5.229 227.3 5.4 A 0.189 0.189 0 0 0 227.262 5.453 Q 227.177 5.634 227.465 6.028 A 3.452 3.452 0 0 0 227.6 6.2 A 23.294 23.294 0 0 1 227.615 6.223 A 24.401 24.401 0 0 1 230.55 12.6 Q 231.6 16.1 231.8 19.85 Q 232 23.6 231.6 27.45 A 53.041 53.041 0 0 1 231.369 29.347 A 45.818 45.818 0 0 1 230.3 34.7 Q 228.9 40.2 226.8 45.55 A 464.936 464.936 0 0 0 226.538 46.218 A 426.629 426.629 0 0 0 222.85 56 Q 221 61.1 219.95 65.95 A 29.614 29.614 0 0 0 219.911 66.132 Q 218.913 70.886 219.6 75.4 A 0.875 0.875 0 0 0 219.605 75.497 Q 219.629 75.708 219.762 75.772 A 0.315 0.315 0 0 0 219.9 75.8 L 220.1 75.6 Q 220.1 75.53 220.148 75.461 A 0.451 0.451 0 0 1 220.2 75.4 A 52.257 52.257 0 0 1 220.76 72.605 A 64.4 64.4 0 0 1 222 68 A 117.775 117.775 0 0 1 222.666 65.907 A 136.251 136.251 0 0 1 224.8 59.9 Q 226.4 55.7 228.15 51.1 Q 229.9 46.5 231.4 41.7 Q 231.6 43.4 231.9 45.1 L 232.5 48.5 Q 233.3 52.5 234.8 56.5 Q 236.3 60.5 238.65 63.9 Q 241 67.3 244.1 69.75 A 16.834 16.834 0 0 0 245.504 70.748 A 17.819 17.819 0 0 0 251.3 73.1 Q 251.604 73.176 251.706 73.05 A 0.227 0.227 0 0 0 251.75 72.95 A 0.229 0.229 0 0 0 251.755 72.905 Q 251.755 72.727 251.466 72.576 A 1.779 1.779 0 0 0 251.3 72.5 A 19.907 19.907 0 0 1 250.009 71.794 A 21.838 21.838 0 0 1 245.75 68.45 Q 243.2 65.9 241.25 62.8 Q 239.3 59.7 237.9 56.2 A 43.682 43.682 0 0 1 237.856 56.091 A 39.853 39.853 0 0 1 235.8 49.2 Q 235.3 46.7 234.9 44.25 Q 234.5 41.8 234.3 39.2 Q 234 35.1 234.15 31.05 Q 234.3 27 234.3 22.8 Q 234.8 24.8 235.2 26.95 Q 235.6 29.1 235.9 30.95 A 81.963 81.963 0 0 1 236.073 32.062 Q 236.247 33.238 236.35 34.2 A 114.857 114.857 0 0 1 236.369 34.376 Q 236.474 35.37 236.495 35.749 A 2.87 2.87 0 0 1 236.5 35.9 Q 236.6 37.3 236.8 38.95 Q 237 40.6 237.3 42.25 Q 237.6 43.9 237.95 45.5 A 38.017 38.017 0 0 0 238.049 45.942 Q 238.356 47.269 238.7 48.3 A 19.951 19.951 0 0 0 238.742 48.425 Q 238.822 48.659 238.97 49.082 A 230.614 230.614 0 0 0 239.1 49.45 Q 239.327 50.094 239.497 50.25 A 0.157 0.157 0 0 0 239.6 50.3 Q 239.919 50.22 240.015 49.696 A 2.507 2.507 0 0 0 240.05 49.4 A 57.673 57.673 0 0 0 240.066 49.129 Q 240.1 48.546 240.1 48.3 Q 239.9 43 239.7 36.7 A 98.051 98.051 0 0 0 239.391 31.379 Z M 251.8 43.3 A 188.558 188.558 0 0 0 251.657 43.933 Q 251.216 45.908 250.7 48.4 A 17.385 17.385 0 0 0 250.658 48.617 Q 250.582 49.025 250.452 49.792 A 223.93 223.93 0 0 0 250.35 50.4 A 66.442 66.442 0 0 0 250.28 50.831 Q 250.065 52.174 249.85 53.85 Q 249.6 55.8 249.5 57.95 A 48.753 48.753 0 0 0 249.47 58.74 Q 249.419 60.419 249.5 61.8 Q 248.2 58.8 248.05 55.65 Q 247.9 52.5 248.35 49.45 Q 248.8 46.4 249.6 43.5 A 150.108 150.108 0 0 0 250.172 41.367 A 125.528 125.528 0 0 0 251 38 Q 252 34 253 30.75 A 106.397 106.397 0 0 1 253.063 30.547 A 97.624 97.624 0 0 1 255.15 24.5 Q 256.3 21.5 257.45 18.4 Q 258.034 16.826 258.657 15.045 A 263.114 263.114 0 0 0 259.9 11.4 A 19.442 19.442 0 0 0 260.043 11.032 A 16.089 16.089 0 0 0 260.25 10.45 Q 260.339 10.183 260.305 10.004 A 0.382 0.382 0 0 0 260.2 9.8 Q 260.029 9.629 259.785 9.897 A 1.402 1.402 0 0 0 259.7 10 Q 259.4 10.4 259.1 10.9 A 46.228 46.228 0 0 0 258.94 11.142 Q 258.378 11.997 257.783 12.982 A 79.343 79.343 0 0 0 256.55 15.1 Q 255.2 17.5 253.9 20.15 Q 252.6 22.8 251.5 25.5 A 80.051 80.051 0 0 0 250.842 27.168 A 68.423 68.423 0 0 0 249.6 30.7 Q 249.009 32.538 248.462 35.129 A 87.259 87.259 0 0 0 247.9 38.05 Q 247.1 42.6 246.4 48.4 A 53.556 53.556 0 0 1 246.37 48.228 Q 246.083 46.568 245.75 44.05 Q 245.4 41.4 245 38.25 A 165.252 165.252 0 0 0 244.898 37.459 A 182.802 182.802 0 0 0 244.05 31.75 Q 243.5 28.4 242.75 25.4 A 52.639 52.639 0 0 0 242.055 22.88 A 41.241 41.241 0 0 0 241.05 19.95 Q 240.486 18.495 239.798 17.446 A 7.796 7.796 0 0 0 238.8 16.2 A 2.263 2.263 0 0 0 238.717 16.071 Q 238.459 15.7 238.2 15.7 A 1.385 1.385 0 0 0 238.183 15.709 Q 238.002 15.802 238.05 15.85 Q 238.1 15.9 238.3 16.4 A 48.124 48.124 0 0 1 239.153 19.245 A 40.52 40.52 0 0 1 240.4 26.3 Q 240.8 31.1 241.3 35.8 Q 241.7 39.4 242 43.15 Q 242.3 46.9 243 50.5 Q 243.7 54.1 244.85 57.45 Q 246 60.8 248.1 63.8 Q 248.613 64.598 249.143 65.185 A 6.615 6.615 0 0 0 249.95 65.95 A 15.952 15.952 0 0 0 250.772 66.558 A 12.507 12.507 0 0 0 251.8 67.2 A 73.498 73.498 0 0 1 251.771 65.159 A 67.621 67.621 0 0 1 251.95 60.2 A 95.308 95.308 0 0 1 252.166 57.706 A 80.046 80.046 0 0 1 252.65 53.8 Q 253.1 50.8 253.55 48.35 A 124.443 124.443 0 0 1 253.826 46.892 Q 254.125 45.369 254.4 44.2 Q 254.7 42.9 255.2 41.1 Q 255.7 39.3 256.2 37.45 Q 256.7 35.6 257.15 33.9 A 137.801 137.801 0 0 0 257.274 33.43 Q 257.455 32.736 257.609 32.114 A 77.386 77.386 0 0 0 257.9 30.9 A 1.494 1.494 0 0 0 257.927 30.806 Q 258.014 30.476 258.1 29.7 Q 258.175 29.025 258.081 28.856 A 0.092 0.092 0 0 0 258 28.8 Q 257.75 28.717 257.395 29.225 A 3.908 3.908 0 0 0 257.25 29.45 A 82.976 82.976 0 0 1 257.18 29.566 Q 256.784 30.224 256.6 30.5 A 81.099 81.099 0 0 0 256.429 30.83 Q 255.839 31.978 255.346 33.029 A 48.507 48.507 0 0 0 254.45 35.05 A 57.871 57.871 0 0 0 254.437 35.082 A 54.778 54.778 0 0 0 252.95 39.1 A 43.857 43.857 0 0 0 252.78 39.635 A 48.694 48.694 0 0 0 251.8 43.3 Z M 127.783 75.172 A 44.013 44.013 0 0 0 127.3 75.1 A 16.926 16.926 0 0 1 123.485 74.168 A 20.794 20.794 0 0 1 119.25 72 A 20.097 20.097 0 0 1 118.409 71.416 A 16.789 16.789 0 0 1 113.3 65.5 A 32.669 32.669 0 0 1 113.17 65.25 A 29.34 29.34 0 0 1 110.4 57.3 Q 109.6 53.1 109.5 49 A 58.765 58.765 0 0 1 109.496 48.3 A 58.091 58.091 0 0 1 111.7 32.45 Q 114 24.3 118.7 17.4 A 26.279 26.279 0 0 1 121.444 13.927 A 32.449 32.449 0 0 1 125.95 9.95 A 30.103 30.103 0 0 1 126.665 9.44 A 26.103 26.103 0 0 1 135.65 5.4 Q 138.031 4.845 140.444 4.868 A 21.428 21.428 0 0 1 146.1 5.7 A 14.104 14.104 0 0 1 147.597 6.216 Q 150.114 7.245 152.367 9.28 A 24.175 24.175 0 0 1 155.6 12.9 Q 155.905 13.266 156.098 13.594 A 3.007 3.007 0 0 1 156.3 14 A 2.26 2.26 0 0 0 156.336 14.084 Q 156.493 14.435 156.65 14.416 A 0.154 0.154 0 0 0 156.7 14.4 Q 156.875 14.313 156.744 13.842 A 3.008 3.008 0 0 0 156.7 13.7 A 21.106 21.106 0 0 0 156.631 13.498 Q 156.482 13.064 156.4 12.9 A 11.687 11.687 0 0 0 154.498 9.21 A 13.979 13.979 0 0 0 151.5 6.35 A 19.141 19.141 0 0 0 149.457 5.073 A 20.584 20.584 0 0 0 143 2.9 A 24.428 24.428 0 0 0 138.977 2.572 Q 136.026 2.572 132.9 3.25 Q 127.6 4.4 123.3 8 Q 119.2 11.4 116.3 15.5 A 58.983 58.983 0 0 0 115.246 17.041 A 51.94 51.94 0 0 0 111.45 23.8 Q 109.5 28 108.4 32 A 96.073 96.073 0 0 0 108.102 33.107 Q 107.674 34.741 107.352 36.215 A 53.604 53.604 0 0 0 106.8 39.1 A 52.146 52.146 0 0 0 106.177 47.107 A 51.041 51.041 0 0 0 106.3 50.65 A 41.072 41.072 0 0 0 106.995 55.787 A 51.176 51.176 0 0 0 108.9 62.7 Q 109.9 65.6 111.9 68 Q 113.9 70.4 116.4 72.05 Q 118.9 73.7 121.75 74.6 A 20.878 20.878 0 0 0 122.284 74.761 A 18.497 18.497 0 0 0 127.4 75.5 Q 129.1 75.5 128.9 75.4 Q 128.738 75.319 127.783 75.172 Z M 348.7 41.2 L 349.6 43.2 A 1002.243 1002.243 0 0 1 353.877 52.781 A 1107.73 1107.73 0 0 1 354.5 54.2 Q 356.648 59.098 358.206 63.111 A 151.672 151.672 0 0 1 358.7 64.4 A 9.638 9.638 0 0 1 359.031 65.381 A 10.533 10.533 0 0 1 359.05 65.45 Q 359.2 66 359 66.1 A 0.116 0.116 0 0 1 358.947 66.081 Q 358.832 66.016 358.564 65.722 A 8.665 8.665 0 0 1 358.5 65.65 A 23.671 23.671 0 0 1 357.8 64.824 A 25.956 25.956 0 0 1 357.7 64.7 Q 354.2 60 351.45 54.9 Q 348.7 49.8 346.1 44.4 Q 344.9 45.9 343.7 47.45 Q 342.5 49 341.3 50.6 Q 343.2 54.3 345.6 57.95 Q 348 61.6 350.8 64.85 Q 353.6 68.1 356.75 70.75 A 33.329 33.329 0 0 0 360.746 73.652 A 28.092 28.092 0 0 0 363.2 75 A 16.673 16.673 0 0 1 363.341 75.071 Q 363.8 75.306 363.8 75.35 Q 363.8 75.4 363.1 75.4 Q 359.1 74.8 355.65 72.75 Q 352.2 70.7 349.25 67.7 A 47.581 47.581 0 0 1 344.557 62.104 A 53.564 53.564 0 0 1 343.75 60.95 Q 341.2 57.2 339.1 53.3 Q 335.9 57.1 332.4 60.75 A 200.371 200.371 0 0 1 329.873 63.34 Q 328.482 64.739 327.22 65.944 A 109.275 109.275 0 0 1 326.1 67 A 24.479 24.479 0 0 0 325.746 67.361 Q 325.469 67.65 325.25 67.9 A 2.048 2.048 0 0 1 325.132 68.024 Q 324.865 68.283 324.7 68.2 A 0.127 0.127 0 0 1 324.631 68.103 Q 324.603 67.949 324.796 67.595 A 3.804 3.804 0 0 1 324.85 67.5 A 10.422 10.422 0 0 0 325.128 66.994 Q 325.288 66.681 325.4 66.4 Q 327.3 62.7 329.75 59.1 Q 332.2 55.5 334.95 52.05 Q 337.7 48.6 340.6 45.2 Q 343.5 41.8 346.3 38.4 Q 349.8 34.1 353.9 28.8 A 78.095 78.095 0 0 0 360.977 17.944 A 72.956 72.956 0 0 0 361 17.9 Q 361.3 17.2 361.5 17.2 A 0.113 0.113 0 0 1 361.612 17.272 Q 361.656 17.371 361.61 17.602 A 1.987 1.987 0 0 1 361.6 17.65 A 5.378 5.378 0 0 0 361.543 17.942 Q 361.52 18.081 361.509 18.201 A 2.254 2.254 0 0 0 361.5 18.4 A 10.853 10.853 0 0 1 361.176 20.147 Q 360.792 21.594 360 23.3 Q 358.7 26.1 356.85 29.15 Q 355 32.2 352.85 35.35 A 199.888 199.888 0 0 1 350.221 39.112 A 165.131 165.131 0 0 1 348.7 41.2 Z M 199.438 37.453 A 41.466 41.466 0 0 0 199.9 31.4 Q 199.9 28.5 199.1 25.05 Q 198.3 21.6 196.65 18.65 Q 195 15.7 192.3 13.7 A 9.865 9.865 0 0 0 189.4 12.216 A 11.484 11.484 0 0 0 185.9 11.7 Q 182 11.7 178.7 13.45 Q 175.4 15.2 172.75 18 A 27.179 27.179 0 0 0 172.585 18.176 A 28.881 28.881 0 0 0 168.2 24.4 Q 166.3 28 165.2 31.7 Q 165.1 32.1 165.2 32.3 A 0.449 0.449 0 0 0 165.201 32.328 Q 165.21 32.477 165.325 32.415 A 0.313 0.313 0 0 0 165.35 32.4 A 0.354 0.354 0 0 0 165.412 32.345 Q 165.523 32.224 165.693 31.907 A 8.035 8.035 0 0 0 165.8 31.7 Q 167.4 28.8 169.25 25.75 Q 171.1 22.7 173.4 20.25 Q 175.7 17.8 178.6 16.2 A 12.406 12.406 0 0 1 181.341 15.092 A 14.62 14.62 0 0 1 185.2 14.6 A 10.729 10.729 0 0 1 187.39 14.813 A 7.531 7.531 0 0 1 190.75 16.4 Q 192.9 18.2 194.15 20.85 Q 195.4 23.5 195.85 26.5 A 43.497 43.497 0 0 1 196.173 29.203 A 32.537 32.537 0 0 1 196.3 32 Q 196.3 35.8 195.6 39.65 Q 194.9 43.5 193.55 47.25 Q 192.2 51 190.2 54.45 Q 188.2 57.9 185.6 60.7 Q 183.9 62.7 181.35 64.65 Q 178.8 66.6 176 66.6 A 6.787 6.787 0 0 1 175.517 66.583 Q 175.004 66.547 174.571 66.429 A 3.287 3.287 0 0 1 173.6 66 A 14.762 14.762 0 0 1 173.038 65.605 A 17.33 17.33 0 0 1 171.8 64.6 A 9.587 9.587 0 0 0 171.527 64.337 Q 171.109 63.951 170.865 63.843 A 0.419 0.419 0 0 0 170.7 63.8 A 0.145 0.145 0 0 0 170.687 63.801 Q 170.417 63.824 171.2 64.9 A 9.228 9.228 0 0 0 171.79 65.692 A 7.482 7.482 0 0 0 173.55 67.25 A 4.803 4.803 0 0 0 173.703 67.342 Q 174.451 67.776 175.389 67.961 A 7.785 7.785 0 0 0 176.9 68.1 A 11.513 11.513 0 0 0 177.328 68.092 A 9.905 9.905 0 0 0 181.15 67.2 Q 183.1 66.3 184.8 65 A 29.816 29.816 0 0 0 185.468 64.465 A 31.951 31.951 0 0 0 191.2 58.25 Q 194 54.3 195.95 49.75 Q 197.9 45.2 198.9 40.45 A 49.939 49.939 0 0 0 199.438 37.453 Z M 248.7 66.8 A 19.948 19.948 0 0 0 250.776 68.77 A 18.284 18.284 0 0 0 251 68.95 Q 252.2 69.9 253.6 70.7 A 32.339 32.339 0 0 1 253.108 65.029 A 35.861 35.861 0 0 1 253.3 61.35 A 75.271 75.271 0 0 1 254.999 51.502 A 33.761 33.761 0 0 0 255 51.5 Q 256.2 46.5 257.8 41.5 Q 259.4 36.5 260.9 31.7 Q 263.1 24.7 264.45 17.15 Q 265.8 9.6 266 2.1 Q 266 1.447 266.067 1.327 A 0.042 0.042 0 0 1 266.1 1.3 A 0.249 0.249 0 0 1 266.338 1.448 Q 266.4 1.572 266.4 1.8 A 47.571 47.571 0 0 1 267.318 8.366 A 42.306 42.306 0 0 1 267.4 10.15 Q 267.5 14.2 267 18.15 Q 266.5 22.1 265.6 26 Q 264.7 29.9 263.5 33.9 Q 262 39.3 260.4 44.75 Q 258.8 50.2 257.55 55.45 A 91.152 91.152 0 0 0 255.778 65.118 A 83.611 83.611 0 0 0 255.7 65.75 A 50.753 50.753 0 0 0 255.353 70.543 Q 255.295 72.994 255.5 75.3 A 1.201 1.201 0 0 1 255.493 75.433 Q 255.463 75.7 255.3 75.7 Q 255.1 75.7 255.05 75.55 A 0.681 0.681 0 0 0 254.978 75.397 A 0.578 0.578 0 0 0 254.9 75.3 A 210.113 210.113 0 0 0 254.805 75.064 Q 254.494 74.288 254.45 74.2 Q 254.408 74.115 254.184 73.38 A 92.289 92.289 0 0 1 254.1 73.1 A 3.436 3.436 0 0 0 253.972 72.69 Q 253.801 72.25 253.541 72.033 A 0.984 0.984 0 0 0 253.5 72 Q 253.198 71.774 253.011 71.661 A 1.688 1.688 0 0 0 252.9 71.6 A 76.624 76.624 0 0 1 251.695 71.164 Q 251.104 70.944 250.59 70.74 A 38.566 38.566 0 0 1 250 70.5 A 4.688 4.688 0 0 1 249.284 70.114 Q 248.253 69.453 246.8 68 A 9.205 9.205 0 0 1 246.186 67.316 Q 245.892 66.955 245.585 66.521 A 20.024 20.024 0 0 1 245.1 65.8 Q 244.2 64.4 243.5 63.05 A 17.966 17.966 0 0 1 243.031 62.08 Q 242.816 61.596 242.663 61.159 A 8.959 8.959 0 0 1 242.5 60.65 Q 242.2 59.6 242.5 59.5 A 0.14 0.14 0 0 1 242.553 59.514 Q 242.672 59.567 242.954 59.81 A 7.951 7.951 0 0 1 243 59.85 A 8.437 8.437 0 0 1 243.5 60.327 A 10.175 10.175 0 0 1 243.8 60.65 Q 244.2 61.1 244.55 61.6 Q 244.898 62.097 244.999 62.199 A 0.403 0.403 0 0 0 245 62.2 Q 246.8 64.9 248.7 66.8 Z M 309.192 12.765 A 2.247 2.247 0 0 0 309.1 12.8 A 19.748 19.748 0 0 1 307.604 13.205 Q 305.727 13.633 303.94 13.633 A 14.636 14.636 0 0 1 302.95 13.6 Q 300 13.4 297.1 13.2 A 76 76 0 0 0 290.515 12.909 A 70.874 70.874 0 0 0 288.1 12.95 A 20.81 20.81 0 0 0 287.243 12.997 A 21.692 21.692 0 0 0 279.5 15.1 L 278.9 15.5 A 1.414 1.414 0 0 0 278.846 15.538 Q 278.708 15.639 278.648 15.741 A 0.308 0.308 0 0 0 278.6 15.9 A 0.135 0.135 0 0 0 278.627 15.982 Q 278.701 16.081 278.97 16.127 A 2.332 2.332 0 0 0 279.15 16.15 A 55.963 55.963 0 0 0 279.301 16.164 Q 279.715 16.2 279.8 16.2 A 165.689 165.689 0 0 1 278.631 21.165 A 203.725 203.725 0 0 1 276.25 29.8 Q 274.1 37 272.4 44.2 Q 270.7 45.6 269.5 47.5 Q 268.3 49.4 267.8 52.3 A 0.799 0.799 0 0 0 267.742 52.458 Q 267.72 52.543 267.71 52.646 A 1.996 1.996 0 0 0 267.7 52.85 A 1.113 1.113 0 0 0 267.701 52.893 Q 267.713 53.2 267.9 53.2 A 0.193 0.193 0 0 0 268.027 53.151 Q 268.135 53.061 268.2 52.8 A 15.473 15.473 0 0 1 268.494 52.138 A 13.37 13.37 0 0 1 270.85 48.65 Q 272.5 46.9 274.45 45.7 Q 276.4 44.5 278.5 43.9 Q 280.6 43.3 282.7 43.2 A 36.314 36.314 0 0 1 283.8 43.183 A 36.665 36.665 0 0 1 289.3 43.6 Q 292.6 44.1 295.8 44.3 Q 296.609 44.351 297.4 44.35 A 22.244 22.244 0 0 0 301.9 43.9 A 9.542 9.542 0 0 0 304.778 42.791 A 11.883 11.883 0 0 0 307.2 40.9 A 0.664 0.664 0 0 0 307.355 40.663 A 0.739 0.739 0 0 0 307.4 40.4 A 0.289 0.289 0 0 0 307.396 40.351 Q 307.356 40.118 306.9 40.3 Q 304.8 41.1 302.6 41.25 Q 300.4 41.4 298 41.25 Q 295.6 41.1 293 40.75 Q 290.4 40.4 287.7 40.2 Q 288.4 37.3 289.1 34 Q 289.8 30.7 290.25 27.45 A 58.302 58.302 0 0 0 290.534 25.045 A 47.219 47.219 0 0 0 290.75 21.35 Q 290.78 19.651 290.579 18.254 A 12.121 12.121 0 0 0 290.2 16.5 Q 291.55 16.5 293.434 16.556 A 202.648 202.648 0 0 1 294.75 16.6 A 43.351 43.351 0 0 0 296.326 16.629 A 44.672 44.672 0 0 0 300.3 16.45 Q 303.1 16.2 305.55 15.5 A 11.57 11.57 0 0 0 305.863 15.406 Q 308.084 14.703 309.3 13.3 A 1.061 1.061 0 0 0 309.367 13.227 A 0.844 0.844 0 0 0 309.55 12.85 A 0.253 0.253 0 0 0 309.553 12.831 Q 309.577 12.631 309.192 12.765 Z M 113.1 37.2 Q 113.8 32 115.5 26.95 Q 117.2 21.9 120.05 17.8 Q 122.9 13.7 127.1 10.7 A 24.704 24.704 0 0 1 133.912 7.317 A 30.377 30.377 0 0 1 137 6.5 A 15.898 15.898 0 0 1 138.798 6.233 Q 139.751 6.144 140.812 6.144 A 26.353 26.353 0 0 1 141.35 6.15 A 15.819 15.819 0 0 1 146.097 6.998 A 17.713 17.713 0 0 1 146.25 7.05 A 15.621 15.621 0 0 1 150.715 9.495 A 17.534 17.534 0 0 1 150.85 9.6 A 11.314 11.314 0 0 1 153.139 12.077 A 15.313 15.313 0 0 1 154.4 14.3 A 11.819 11.819 0 0 1 155.255 17.002 Q 155.424 17.923 155.424 18.839 A 9.929 9.929 0 0 1 155.35 20.05 A 14.854 14.854 0 0 1 154.589 23.301 A 12.68 12.68 0 0 1 153.75 25.15 A 13.132 13.132 0 0 1 151.643 27.997 A 11.892 11.892 0 0 1 150.65 28.9 Q 148.8 30.4 147 30.6 Q 146.738 30.687 146.36 30.66 A 2.887 2.887 0 0 1 146.25 30.65 A 1.561 1.561 0 0 1 146.097 30.626 Q 145.949 30.594 145.875 30.538 A 0.169 0.169 0 0 1 145.8 30.4 Q 145.8 30.205 145.895 30.248 A 0.13 0.13 0 0 1 145.9 30.25 A 0.054 0.054 0 0 0 145.917 30.255 Q 146.066 30.274 147 29.9 Q 147.7 29.6 148.65 28.85 A 8.167 8.167 0 0 0 149.659 27.895 A 10.985 10.985 0 0 0 150.45 26.9 Q 151.3 25.7 152 24.1 A 11.429 11.429 0 0 0 152.803 21.331 A 13.311 13.311 0 0 0 152.9 20.6 A 8.83 8.83 0 0 0 152.944 19.721 A 7.989 7.989 0 0 0 152.4 16.8 Q 151.7 15 150.35 13.55 Q 149 12.1 147.2 11.1 A 11.39 11.39 0 0 0 144.238 9.944 A 10.506 10.506 0 0 0 143.5 9.8 Q 141.915 9.558 140.409 9.558 A 16.495 16.495 0 0 0 132.8 11.35 Q 128 13.8 124.3 18.05 Q 120.6 22.3 118.1 27.55 A 69.434 69.434 0 0 0 115.782 32.973 A 53.279 53.279 0 0 0 114.3 37.5 A 0.316 0.316 0 0 1 114.293 37.555 Q 114.268 37.684 114.154 38.036 A 20.867 20.867 0 0 1 114.1 38.2 Q 113.9 38.8 113.7 39.5 A 133.294 133.294 0 0 0 113.535 40.084 Q 113.459 40.351 113.393 40.592 A 78.468 78.468 0 0 0 113.35 40.75 A 5.205 5.205 0 0 1 113.3 40.923 Q 113.197 41.253 113.121 41.294 A 0.044 0.044 0 0 1 113.1 41.3 A 0.057 0.057 0 0 1 113.055 41.269 Q 112.988 41.169 112.95 40.75 Q 112.913 40.338 112.931 39.813 A 11.769 11.769 0 0 1 112.95 39.45 Q 113 38.7 113.05 38.05 Q 113.091 37.519 113.098 37.288 A 2.787 2.787 0 0 0 113.1 37.2 Z M 284.5 54 L 283.9 54 Q 283.2 56.4 282.45 58.55 Q 281.7 60.7 281 62.7 A 23.248 23.248 0 0 1 282.728 62.194 A 18.802 18.802 0 0 1 283.85 61.95 A 10.93 10.93 0 0 1 285.725 61.772 Q 286.204 61.767 286.7 61.8 Q 289.6 61.9 292.5 62.4 A 130.243 130.243 0 0 0 297.806 63.206 A 119.017 119.017 0 0 0 298.15 63.25 Q 300.556 63.556 302.809 63.556 A 32.679 32.679 0 0 0 303.45 63.55 Q 306 63.5 308.2 62.4 A 0.458 0.458 0 0 1 308.236 62.384 Q 308.376 62.328 308.396 62.452 A 0.293 0.293 0 0 1 308.4 62.5 A 0.851 0.851 0 0 1 308.341 62.806 A 1.045 1.045 0 0 1 308.3 62.9 A 11.369 11.369 0 0 1 306.364 64.605 A 8.397 8.397 0 0 1 303.45 65.9 Q 300.8 66.5 297.9 66.35 Q 295 66.2 292 65.6 A 30.053 30.053 0 0 0 286.145 65 A 28.215 28.215 0 0 0 286.1 65 Q 283.495 64.93 280.816 65.801 A 19.84 19.84 0 0 0 278.55 66.7 A 13.47 13.47 0 0 0 274.13 70.073 A 18.548 18.548 0 0 0 272.1 72.9 A 4.826 4.826 0 0 1 271.995 73.035 Q 271.793 73.285 271.71 73.299 A 0.058 0.058 0 0 1 271.7 73.3 A 0.054 0.054 0 0 1 271.649 73.265 Q 271.62 73.203 271.645 73.033 A 1.713 1.713 0 0 1 271.65 73 Q 271.7 72.7 271.7 72.6 A 18.067 18.067 0 0 1 271.945 71.961 Q 272.182 71.381 272.399 70.99 A 4.962 4.962 0 0 1 272.45 70.9 Q 272.751 70.384 273.088 69.721 A 34.103 34.103 0 0 0 273.2 69.5 Q 271.8 66.7 271.2 63.85 A 33.931 33.931 0 0 1 270.519 58.383 A 37.555 37.555 0 0 1 270.5 57.9 Q 270.5 56.021 270.767 54.943 A 4.38 4.38 0 0 1 270.9 54.5 A 2.187 2.187 0 0 1 271.305 53.838 Q 271.983 53.044 273.6 52.2 Q 277.4 50.2 281.7 50.2 Q 286 50.2 290.3 50.7 Q 293.1 51 295.9 51.15 A 13.716 13.716 0 0 0 296.634 51.17 Q 299.091 51.17 301.7 50.3 Q 302.181 50.107 302.107 50.425 A 0.558 0.558 0 0 1 302.1 50.45 Q 302.012 50.759 301.846 50.951 A 0.927 0.927 0 0 1 301.8 51 A 6.24 6.24 0 0 1 299.351 52.811 A 8.266 8.266 0 0 1 298.2 53.2 Q 295.9 53.8 293.3 53.95 Q 290.7 54.1 288.3 54 A 63.331 63.331 0 0 0 287.298 53.966 Q 285.747 53.926 284.702 53.987 A 15.653 15.653 0 0 0 284.5 54 Z M 56.2 68.2 L 56.5 69.4 A 3.384 3.384 0 0 1 56.515 69.496 Q 56.582 69.985 56.408 69.952 A 0.143 0.143 0 0 1 56.4 69.95 A 0.494 0.494 0 0 1 56.265 69.891 Q 56.119 69.803 55.95 69.6 Q 55.7 69.3 55.45 68.9 A 6.594 6.594 0 0 1 55.365 68.761 Q 55.204 68.487 55.2 68.404 A 0.087 0.087 0 0 1 55.2 68.4 Q 52.8 64 51.4 59.45 Q 50 54.9 49.2 50.25 Q 48.4 45.6 47.85 40.85 Q 47.3 36.1 46.55 31.15 Q 45.8 26.2 44.6 21.1 Q 43.4 16 41.2 10.7 A 3.61 3.61 0 0 1 41.144 10.581 Q 41.06 10.397 40.931 10.077 A 29.077 29.077 0 0 1 40.9 10 Q 40.769 9.672 40.81 9.516 A 0.171 0.171 0 0 1 40.9 9.4 A 0.36 0.36 0 0 1 41.035 9.429 Q 41.15 9.476 41.291 9.598 A 2.098 2.098 0 0 1 41.4 9.7 L 41.8 10.1 A 19.049 19.049 0 0 1 43.629 12.7 Q 44.43 14.052 45.15 15.682 A 36.502 36.502 0 0 1 45.7 17 Q 47.4 21.3 48.7 26.2 Q 50 31.1 50.85 35.9 A 302.874 302.874 0 0 1 51.438 39.331 Q 51.663 40.691 51.853 41.933 A 169.863 169.863 0 0 1 52.2 44.3 Q 53 50 53.9 56.3 A 122.718 122.718 0 0 0 55.452 64.995 A 106.011 106.011 0 0 0 56.2 68.2 Z M 352.5 28 Q 348.6 33 343.9 38.05 Q 339.2 43.1 334.7 47.6 A 0.683 0.683 0 0 0 334.598 47.667 Q 334.429 47.795 334.118 48.118 A 15.674 15.674 0 0 0 333.9 48.35 A 4.415 4.415 0 0 1 333.736 48.519 Q 333.399 48.847 333.216 48.847 A 0.158 0.158 0 0 1 333.1 48.8 Q 332.9 48.7 333.25 47.8 Q 333.541 47.052 333.798 46.649 A 2.376 2.376 0 0 1 333.9 46.5 Q 334.6 45.3 335.9 43.45 A 170.221 170.221 0 0 1 337.934 40.619 A 189.522 189.522 0 0 1 338.65 39.65 Q 340.1 37.7 341.45 35.85 Q 342.8 34 343.7 32.9 Q 346 29.9 348.75 26.2 Q 351.5 22.5 353.95 18.8 Q 356.4 15.1 358.35 11.8 Q 360.3 8.5 361 6.5 A 22.288 22.288 0 0 1 361.072 6.242 Q 361.307 5.42 361.396 5.401 A 0.02 0.02 0 0 1 361.4 5.4 A 0.089 0.089 0 0 1 361.454 5.423 Q 361.518 5.473 361.598 5.635 A 2.45 2.45 0 0 1 361.65 5.75 Q 361.8 6.1 361.8 6.6 Q 361.9 8.8 361 11.75 A 40.635 40.635 0 0 1 359.174 16.577 A 45.799 45.799 0 0 1 358.65 17.7 Q 357.2 20.7 355.55 23.45 Q 354.287 25.555 353.17 27.104 A 30.883 30.883 0 0 1 352.5 28 Z M 32.15 2.85 A 31.841 31.841 0 0 0 32.156 2.862 Q 32.502 3.503 32.7 3.8 A 5.989 5.989 0 0 1 32.714 3.828 Q 32.803 4.009 33.061 4.554 A 265.013 265.013 0 0 1 33.2 4.85 Q 33.6 5.7 34.1 6.7 Q 34.6 7.7 35.05 8.7 A 122.466 122.466 0 0 0 35.12 8.854 Q 35.516 9.732 35.7 10.1 A 80.958 80.958 0 0 1 36.551 12.24 A 67.638 67.638 0 0 1 37.75 15.65 Q 38.6 18.3 39.25 20.9 Q 39.9 23.5 40.4 26.25 Q 40.9 29 41.5 32 Q 42.3 35.9 43.25 40.65 Q 43.729 43.044 44.271 45.171 A 64.011 64.011 0 0 0 45.4 49.1 A 3.524 3.524 0 0 0 45.431 49.19 Q 45.547 49.508 45.85 50.2 A 8.275 8.275 0 0 0 45.853 50.206 Q 46.201 51.001 46.5 51.2 A 0.469 0.469 0 0 0 46.67 51.053 Q 46.872 50.776 46.854 50.109 A 4.57 4.57 0 0 0 46.85 50 A 167.836 167.836 0 0 1 46.837 49.728 Q 46.8 48.971 46.8 48.8 Q 46.8 42 45.75 35.6 Q 44.7 29.2 43.2 22.6 A 50.777 50.777 0 0 0 42.694 20.533 A 62.119 62.119 0 0 0 41.6 16.9 Q 40.6 13.9 39.35 11.15 A 38.616 38.616 0 0 0 38.83 10.051 A 33.833 33.833 0 0 0 36.55 6.1 Q 35 3.8 33.2 2.5 A 0.777 0.777 0 0 0 33.146 2.452 Q 33.042 2.366 32.806 2.205 A 16.957 16.957 0 0 0 32.65 2.1 A 1.86 1.86 0 0 0 32.569 2.049 Q 32.182 1.818 32 2 A 0.236 0.236 0 0 0 31.94 2.104 Q 31.887 2.291 32.055 2.66 A 3.252 3.252 0 0 0 32.15 2.85 Z M 221.845 25.297 A 127.897 127.897 0 0 0 219.4 33.5 A 45.846 45.846 0 0 1 219.266 34.045 Q 218.831 35.761 218.106 38.122 A 161.005 161.005 0 0 1 217.5 40.05 A 118.198 118.198 0 0 0 217.02 41.583 A 132.261 132.261 0 0 0 215.1 48.55 A 114.539 114.539 0 0 0 214.547 50.889 A 98.739 98.739 0 0 0 213.35 57.1 Q 212.7 61.2 213.3 63.9 A 8.95 8.95 0 0 0 213.354 64.081 Q 213.475 64.474 213.554 64.569 A 0.067 0.067 0 0 0 213.6 64.6 A 1.596 1.596 0 0 0 213.605 64.6 Q 213.743 64.6 213.784 64.575 A 0.029 0.029 0 0 0 213.8 64.55 Q 213.8 64.5 213.9 64 A 63.045 63.045 0 0 1 214.413 61.022 A 53.702 53.702 0 0 1 216.3 53.95 Q 217.9 49.3 219.5 44.8 Q 222 37.7 224 30.4 A 52.419 52.419 0 0 0 225.905 16.495 A 50.755 50.755 0 0 0 225.9 15.8 L 225.9 14.8 A 2.293 2.293 0 0 0 225.899 14.745 Q 225.893 14.488 225.828 14.379 A 0.144 0.144 0 0 0 225.7 14.3 A 0.212 0.212 0 0 0 225.676 14.29 Q 225.491 14.224 225.35 14.6 Q 225.27 14.813 225.177 15.053 A 53.777 53.777 0 0 1 225 15.5 A 132.643 132.643 0 0 1 224.68 16.589 Q 223.668 19.975 222.25 24.1 A 141.153 141.153 0 0 0 221.845 25.297 Z M 315 2.8 Q 315.5 2.6 315.3 2.9 Q 315.1 3.2 315 3.3 Q 312.4 5.6 309.3 6.2 Q 306.2 6.8 302.85 6.65 A 84.169 84.169 0 0 1 296.834 6.158 A 92.836 92.836 0 0 1 295.95 6.05 A 39.239 39.239 0 0 0 291.011 5.738 A 39.846 39.846 0 0 0 288.8 5.8 Q 286.7 5.9 284.4 6.6 Q 282.1 7.3 280.05 8.55 A 15.121 15.121 0 0 0 276.558 11.509 A 17.056 17.056 0 0 0 276.35 11.75 Q 274.7 13.7 273.8 16.2 Q 273.639 16.521 273.575 16.585 A 0.044 0.044 0 0 1 273.55 16.6 A 0.06 0.06 0 0 1 273.516 16.588 Q 273.493 16.573 273.471 16.538 A 0.43 0.43 0 0 1 273.45 16.5 A 0.373 0.373 0 0 1 273.424 16.428 Q 273.4 16.338 273.4 16.2 L 273.4 15.9 A 19.317 19.317 0 0 1 274.149 12.863 A 14.016 14.016 0 0 1 275.6 9.8 Q 277.2 7.3 279.4 5.75 Q 281.6 4.2 284.2 3.5 Q 286.8 2.8 289.4 2.7 A 57.354 57.354 0 0 1 290.993 2.678 A 54.042 54.042 0 0 1 296.45 2.95 A 748.038 748.038 0 0 0 302.743 3.562 A 682.972 682.972 0 0 0 303.15 3.6 Q 305.936 3.857 308.538 3.857 A 51.743 51.743 0 0 0 309.4 3.85 A 16.659 16.659 0 0 0 313.759 3.217 A 15.175 15.175 0 0 0 315 2.8 Z M 103.255 65.813 A 2.605 2.605 0 0 0 103.2 65.9 A 21.515 21.515 0 0 1 101.301 68.222 A 16.706 16.706 0 0 1 95.55 72.25 Q 91.1 74.1 86.9 74 A 37.433 37.433 0 0 1 85.642 73.941 A 41.913 41.913 0 0 1 80.1 73.2 A 80.744 80.744 0 0 0 79.663 73.114 A 73.908 73.908 0 0 0 73.25 72.15 A 25.975 25.975 0 0 0 70.551 72.006 A 22.175 22.175 0 0 0 66.9 72.3 A 9.173 9.173 0 0 0 64.045 73.278 A 10.926 10.926 0 0 0 61.5 75.2 A 5.837 5.837 0 0 0 61.474 75.219 Q 61.125 75.484 61.282 75.454 A 0.342 0.342 0 0 0 61.3 75.45 Q 61.5 75.4 61.7 75.4 A 35.029 35.029 0 0 1 64.539 74.966 Q 67.047 74.685 69.823 74.713 A 54.793 54.793 0 0 1 73.15 74.85 Q 79.5 75.3 86.2 75.4 Q 88.6 75.4 91.05 75.25 Q 93.5 75.1 95.75 74.25 A 11.888 11.888 0 0 0 97.328 73.516 A 13.653 13.653 0 0 0 99.95 71.6 A 10.578 10.578 0 0 0 100.85 70.656 Q 101.579 69.794 102.238 68.681 A 21.559 21.559 0 0 0 103.4 66.4 Q 103.5 66.2 103.5 65.8 A 1.028 1.028 0 0 0 103.5 65.791 Q 103.497 65.443 103.255 65.813 Z M 76.893 32.747 A 131.17 131.17 0 0 0 79.3 24.6 A 19.662 19.662 0 0 0 79.439 24.036 Q 79.64 23.168 79.795 22.169 A 36.552 36.552 0 0 0 80.05 20.1 A 34.14 34.14 0 0 0 80.206 16.83 A 35.038 35.038 0 0 0 80.15 14.85 Q 80 12.2 79.4 9.8 A 16.074 16.074 0 0 0 78.754 7.769 A 11.827 11.827 0 0 0 77.7 5.7 Q 77.5 5.5 77.35 5.25 A 0.84 0.84 0 0 0 77.298 5.172 Q 77.253 5.114 77.204 5.075 A 0.322 0.322 0 0 0 77 5 Q 76.822 5 76.961 5.714 A 7.291 7.291 0 0 0 77 5.9 A 7.281 7.281 0 0 1 77.083 6.378 Q 77.353 8.283 77 11.9 A 108.763 108.763 0 0 1 76.838 13.448 A 122.703 122.703 0 0 1 75.85 20.4 Q 75.1 24.8 74.3 28.4 A 259.055 259.055 0 0 1 74.199 28.852 Q 73.625 31.415 73.33 32.468 A 9.592 9.592 0 0 1 73.2 32.9 Q 72.95 33.713 72.68 34.72 A 81.018 81.018 0 0 0 72.35 36 Q 71.9 37.8 71.55 39.7 Q 71.2 41.6 70.85 43.4 A 43.252 43.252 0 0 0 70.651 44.492 Q 70.468 45.584 70.4 46.4 Q 70.323 46.63 70.276 47.182 A 13.933 13.933 0 0 0 70.25 47.55 A 4.697 4.697 0 0 0 70.248 47.584 Q 70.222 48.099 70.329 48.289 A 0.191 0.191 0 0 0 70.5 48.4 A 0.11 0.11 0 0 0 70.55 48.412 Q 70.711 48.412 70.976 47.971 A 5.022 5.022 0 0 0 71.1 47.75 A 229.141 229.141 0 0 0 71.15 47.656 Q 71.435 47.121 71.552 46.894 A 8.904 8.904 0 0 0 71.6 46.8 Q 73.8 41.6 75.85 35.8 A 151.856 151.856 0 0 0 76.893 32.747 Z M 220.32 47.236 A 238.427 238.427 0 0 0 217.5 54.8 A 26.039 26.039 0 0 0 217.461 54.923 Q 216.885 56.779 216.45 59.15 Q 216 61.6 215.85 64.2 A 33.367 33.367 0 0 0 215.794 66.122 A 29.7 29.7 0 0 0 215.95 69.2 A 18.203 18.203 0 0 0 215.994 69.582 Q 216.122 70.602 216.354 71.489 A 10.475 10.475 0 0 0 217 73.3 A 1.218 1.218 0 0 1 217.074 73.382 Q 217.154 73.477 217.225 73.599 A 2.3 2.3 0 0 1 217.35 73.85 A 2.45 2.45 0 0 0 217.402 73.965 Q 217.482 74.127 217.546 74.177 A 0.089 0.089 0 0 0 217.6 74.2 Q 217.848 74.2 217.891 73.583 A 4.122 4.122 0 0 0 217.9 73.3 A 6.443 6.443 0 0 1 217.877 73.018 Q 217.761 71.114 218.55 67.4 Q 219.4 63.4 220.5 59.15 Q 221.6 54.9 222.65 51.4 Q 223.7 47.9 224 47 Q 224.25 46.25 224.539 45.305 A 117.768 117.768 0 0 0 224.9 44.1 Q 225.4 42.4 225.9 40.55 A 60.25 60.25 0 0 0 226.141 39.631 A 54.149 54.149 0 0 0 226.75 36.95 A 139.239 139.239 0 0 0 226.954 35.91 Q 227.163 34.825 227.3 34 Q 227.5 33.7 227.45 32.9 Q 227.4 32.1 227.2 32 Q 227 32 226.6 32.7 Q 226.275 33.269 226.148 33.507 A 4.262 4.262 0 0 0 226.1 33.6 Q 223.8 38.6 221.55 44.15 A 277.499 277.499 0 0 0 220.32 47.236 Z M 181.8 70.5 Q 179.5 71.7 176.9 71.7 Q 173.3 71.7 170.7 69.7 Q 168.1 67.7 166.35 64.8 Q 164.6 61.9 163.8 58.5 Q 163 55.1 163 52.2 A 10.226 10.226 0 0 1 163.006 51.863 Q 163.025 51.3 163.1 50.4 Q 163.2 49.2 163.35 48.05 A 17.606 17.606 0 0 1 163.519 46.995 Q 163.618 46.481 163.742 46.029 A 10.746 10.746 0 0 1 163.75 46 A 3.457 3.457 0 0 1 163.853 45.683 Q 164.078 45.1 164.4 45.1 Q 164.778 45.1 164.754 46.483 A 11.048 11.048 0 0 1 164.75 46.65 Q 164.7 48.2 164.9 51 A 19.29 19.29 0 0 0 165.051 52.643 Q 165.275 54.334 165.8 56.5 Q 166.6 59.8 168.1 62.85 A 20.35 20.35 0 0 0 170.555 66.719 A 18.018 18.018 0 0 0 171.8 68.1 Q 174 70.3 176.9 70.3 A 26.861 26.861 0 0 0 179.275 70.2 A 19.77 19.77 0 0 0 181.4 69.9 Q 182.4 69.7 182.9 69.7 Q 183.354 69.7 182.077 70.36 A 23.943 23.943 0 0 1 181.8 70.5 Z M 150.2 49.2 L 150.5 49.8 Q 151.37 51.626 151.37 54.208 A 16.384 16.384 0 0 1 151.35 55 A 39.253 39.253 0 0 1 150.748 60.144 A 44.655 44.655 0 0 1 150.5 61.4 A 67.639 67.639 0 0 1 149.091 66.922 A 61 61 0 0 1 148.85 67.7 Q 148.123 69.997 147.659 71.59 A 78.137 78.137 0 0 0 147.4 72.5 A 59.716 59.716 0 0 1 146.923 74.148 Q 146.405 75.852 145.65 78.05 Q 144.5 81.4 143.6 84.2 A 6.015 6.015 0 0 1 143.495 84.462 Q 143.273 84.978 143.113 84.999 A 0.103 0.103 0 0 1 143.1 85 A 0.675 0.675 0 0 1 142.932 84.981 Q 142.713 84.924 142.66 84.701 A 0.574 0.574 0 0 1 142.65 84.65 Q 142.609 84.362 142.602 84.175 A 1.937 1.937 0 0 1 142.6 84.1 A 28.866 28.866 0 0 1 142.423 81.334 Q 142.405 80.114 142.5 78.95 Q 142.7 76.5 143.3 74.1 Q 143.9 71.7 144.75 69.3 Q 145.6 66.9 146.5 64.2 A 179.504 179.504 0 0 0 148.637 57.56 A 164.887 164.887 0 0 0 148.7 57.35 A 28.007 28.007 0 0 0 149.563 53.372 A 37.047 37.047 0 0 0 149.9 49.8 A 8.399 8.399 0 0 1 149.901 49.682 Q 149.905 49.367 149.935 49.279 A 0.075 0.075 0 0 1 149.95 49.25 A 0.111 0.111 0 0 1 149.986 49.227 Q 150.046 49.203 150.172 49.2 A 1.475 1.475 0 0 1 150.2 49.2 Z M 145.431 62.469 A 204.969 204.969 0 0 0 147.7 56.6 A 12.039 12.039 0 0 0 147.768 56.35 Q 147.948 55.667 148.071 54.883 A 20.688 20.688 0 0 0 148.25 53.35 Q 148.4 51.5 148.25 49.55 Q 148.1 47.6 147.6 45.75 A 13.352 13.352 0 0 0 147.199 44.505 A 10.703 10.703 0 0 0 146.2 42.5 Q 146 42.3 145.85 42.05 A 0.84 0.84 0 0 0 145.798 41.972 Q 145.753 41.914 145.704 41.875 A 0.322 0.322 0 0 0 145.5 41.8 A 0.327 0.327 0 0 0 145.416 41.947 Q 145.36 42.15 145.5 42.5 A 4.727 4.727 0 0 1 145.577 42.84 Q 145.857 44.322 145.5 47 A 66.782 66.782 0 0 1 145.395 47.752 A 73.468 73.468 0 0 1 144.4 53.15 Q 143.7 56.3 143 58.95 A 346.895 346.895 0 0 1 142.912 59.282 Q 142.287 61.639 142.1 62.2 A 10.264 10.264 0 0 0 141.953 62.548 Q 141.794 62.945 141.643 63.41 A 20.01 20.01 0 0 0 141.35 64.4 Q 141 65.7 140.7 67.05 Q 140.4 68.4 140.2 69.75 A 23.774 23.774 0 0 0 140.092 70.569 Q 140.049 70.955 140.026 71.295 A 10.491 10.491 0 0 0 140 72 L 140 72.85 A 2.916 2.916 0 0 0 140 72.883 Q 140.004 73.231 140.092 73.39 A 0.258 0.258 0 0 0 140.2 73.5 Q 140.448 73.583 140.663 73.22 A 1.805 1.805 0 0 0 140.75 73.05 A 11.559 11.559 0 0 1 140.842 72.852 Q 140.975 72.574 141.053 72.459 A 0.422 0.422 0 0 1 141.1 72.4 A 162.384 162.384 0 0 0 141.128 72.341 A 175.407 175.407 0 0 0 144.6 64.5 A 234.93 234.93 0 0 0 145.431 62.469 Z M 303.816 72.587 A 0.687 0.687 0 0 0 303.8 72.5 A 0.085 0.085 0 0 0 303.77 72.431 Q 303.681 72.357 303.324 72.461 A 3.499 3.499 0 0 0 303.2 72.5 A 14.59 14.59 0 0 1 301.52 73.049 Q 300.044 73.431 298.641 73.431 A 10.107 10.107 0 0 1 297.85 73.4 Q 295.3 73.2 292.8 72.8 Q 288.8 72.3 284.85 72.15 A 23.081 23.081 0 0 0 283.974 72.133 A 22.699 22.699 0 0 0 277.1 73.2 Q 276.9 73.3 276.55 73.45 Q 276.346 73.537 276.261 73.642 A 0.247 0.247 0 0 0 276.2 73.8 Q 276.2 73.96 276.424 74.024 A 0.951 0.951 0 0 0 276.55 74.05 Q 276.9 74.1 277.1 74.2 Q 278.35 74.513 279.893 74.766 A 54.278 54.278 0 0 0 281.85 75.05 A 46.581 46.581 0 0 0 283.377 75.219 A 39.853 39.853 0 0 0 287.1 75.4 L 290.8 75.4 Q 293.1 75.4 295.55 75.2 A 41.887 41.887 0 0 0 297.052 75.051 A 35.362 35.362 0 0 0 300.15 74.55 Q 301.36 74.297 302.269 73.869 A 5.699 5.699 0 0 0 303.5 73.1 A 0.783 0.783 0 0 0 303.642 73.011 Q 303.846 72.846 303.816 72.587 Z M 284.7 16.4 L 282.8 16.4 A 64.55 64.55 0 0 1 280.869 25.569 A 74.531 74.531 0 0 1 279.9 28.7 Q 277.8 35 276.1 41.6 Q 276.9 41.3 277.55 41.05 A 30.41 30.41 0 0 1 278.487 40.706 A 26.291 26.291 0 0 1 278.8 40.6 Q 279.3 38.6 279.8 36.75 Q 280.23 35.16 280.659 33.903 A 30.995 30.995 0 0 1 280.8 33.5 A 22.295 22.295 0 0 0 280.91 33.158 Q 281.069 32.656 281.33 31.775 A 232.544 232.544 0 0 0 281.5 31.2 A 76.52 76.52 0 0 0 281.889 29.827 Q 282.225 28.6 282.6 27.1 Q 283.2 24.7 283.8 21.9 Q 284.4 19.1 284.7 16.4 Z M 313.73 6.011 A 3.874 3.874 0 0 0 313.6 6.1 Q 312.6 6.9 310.85 7.4 A 18.913 18.913 0 0 1 309.252 7.78 A 23.611 23.611 0 0 1 307 8.1 A 42.038 42.038 0 0 1 305.663 8.205 A 49.449 49.449 0 0 1 302.55 8.3 Q 300.2 8.3 298 8.1 L 296.05 8.1 A 28.447 28.447 0 0 0 295.166 8.114 A 34.369 34.369 0 0 0 293.6 8.2 A 52.004 52.004 0 0 0 292.646 8.282 A 43.665 43.665 0 0 0 291.15 8.45 Q 290 8.6 289.3 8.8 A 0.521 0.521 0 0 0 289.255 8.802 Q 289.094 8.816 288.774 8.922 A 7.941 7.941 0 0 0 288.55 9 A 1.511 1.511 0 0 0 288.406 9.06 Q 288.077 9.22 288.166 9.437 A 0.367 0.367 0 0 0 288.2 9.5 A 0.17 0.17 0 0 0 288.211 9.56 Q 288.275 9.73 288.7 9.9 A 7.262 7.262 0 0 0 288.771 9.928 Q 289.097 10.054 289.283 10.088 A 0.672 0.672 0 0 0 289.4 10.1 Q 292.7 10.8 296 11.4 A 39.564 39.564 0 0 0 297.23 11.604 A 34.964 34.964 0 0 0 302.4 12 A 10.525 10.525 0 0 0 302.859 11.99 Q 303.379 11.967 303.966 11.894 A 20.177 20.177 0 0 0 305.2 11.7 A 18.9 18.9 0 0 0 305.802 11.577 A 21.088 21.088 0 0 0 308.45 10.8 Q 310.1 10.2 311.55 9.2 A 9.612 9.612 0 0 0 311.64 9.137 A 8.439 8.439 0 0 0 313.9 6.8 A 1.604 1.604 0 0 0 313.935 6.745 Q 314.027 6.595 314.096 6.409 A 2.746 2.746 0 0 0 314.2 6.05 A 0.681 0.681 0 0 0 314.204 6.03 Q 314.276 5.654 313.73 6.011 Z M 87.9 70.5 Q 87.9 70.7 87.5 70.8 Q 87.184 70.879 86.993 70.896 A 1.081 1.081 0 0 1 86.9 70.9 A 15.546 15.546 0 0 1 85.86 71.068 Q 84.687 71.22 83.081 71.29 A 52.556 52.556 0 0 1 82.85 71.3 A 42.622 42.622 0 0 1 81.401 71.333 Q 80.292 71.339 79.278 71.281 A 28.084 28.084 0 0 1 78.2 71.2 Q 77.715 71.2 76.008 71.059 A 151.157 151.157 0 0 1 75.9 71.05 Q 74.156 70.905 71.896 70.947 A 58.086 58.086 0 0 0 71.75 70.95 Q 69.4 71 67 71.5 Q 64.6 72 62.9 73.2 A 1.457 1.457 0 0 1 62.803 73.289 Q 62.475 73.563 62.3 73.3 A 0.278 0.278 0 0 1 62.307 73.245 Q 62.333 73.124 62.45 72.85 A 4.34 4.34 0 0 1 62.518 72.7 Q 62.623 72.477 62.7 72.4 A 7.787 7.787 0 0 1 65.111 70.024 A 10.934 10.934 0 0 1 67.05 69.05 Q 70 67.9 73 67.6 A 22.181 22.181 0 0 1 75.071 67.505 Q 77.368 67.505 79.9 67.95 Q 83.6 68.6 86.9 69.6 A 0.176 0.176 0 0 1 86.955 69.612 Q 87.091 69.661 87.45 69.9 A 1.826 1.826 0 0 1 87.636 70.041 Q 87.833 70.212 87.883 70.383 A 0.415 0.415 0 0 1 87.9 70.5 Z M 26.8 44 Q 29.7 44.3 32.55 44.7 Q 35.4 45.1 38.3 45.3 Q 37.2 40 36.4 34.8 Q 35.6 29.6 34.9 24.2 Q 33.6 29.4 31.35 34.3 Q 29.1 39.2 26.8 44 Z M 289.4 16.5 L 287.1 16.5 A 61.432 61.432 0 0 1 287.149 18.63 Q 287.155 19.814 287.112 20.924 A 46.019 46.019 0 0 1 287.1 21.2 Q 287 23.4 286.5 25.1 Q 285.6 28.7 284.5 32.6 Q 283.4 36.5 282 40.2 A 3.246 3.246 0 0 1 282.453 40.122 A 4.346 4.346 0 0 1 282.9 40.1 L 283.9 40.1 L 285.4 35.4 Q 286.8 31 287.95 26.3 A 54.59 54.59 0 0 0 289.39 16.659 A 59.744 59.744 0 0 0 289.4 16.5 Z M 306.091 43.531 A 2.049 2.049 0 0 0 306 43.6 Q 304.9 44.4 303.1 44.9 A 26.926 26.926 0 0 1 301.458 45.299 A 33.746 33.746 0 0 1 299.15 45.7 Q 297 46 294.85 46 Q 292.7 46 290.9 45.8 Q 290.457 45.737 289.874 45.693 A 27.488 27.488 0 0 0 289.15 45.65 Q 288.1 45.6 286.95 45.7 Q 285.8 45.8 284.75 45.9 A 14.795 14.795 0 0 0 284.239 45.957 Q 283.883 46.004 283.574 46.064 A 6.951 6.951 0 0 0 283 46.2 A 0.342 0.342 0 0 0 282.985 46.2 Q 282.784 46.209 282.35 46.45 A 2.189 2.189 0 0 0 282.303 46.477 Q 281.905 46.711 282 46.9 A 0.364 0.364 0 0 0 282.127 47.176 Q 282.239 47.28 282.45 47.35 A 11.655 11.655 0 0 1 282.652 47.419 Q 282.948 47.524 283.1 47.6 A 181.788 181.788 0 0 0 284.669 47.947 A 206.849 206.849 0 0 0 289.6 48.95 A 59.032 59.032 0 0 0 291.696 49.312 A 50.15 50.15 0 0 0 296.1 49.8 A 5.115 5.115 0 0 0 296.131 49.803 Q 297.22 49.895 298.65 49.55 Q 300.1 49.2 301.5 48.55 A 10.245 10.245 0 0 0 302.105 48.244 A 11.336 11.336 0 0 0 304.15 46.8 Q 305.4 45.7 306.2 44.3 Q 306.344 44.156 306.41 43.883 A 1.863 1.863 0 0 0 306.45 43.65 Q 306.495 43.243 306.091 43.531 Z M 307.3 66.4 A 2.536 2.536 0 0 0 307.392 66.194 Q 307.5 65.92 307.5 65.7 A 0.425 0.425 0 0 0 307.481 65.652 Q 307.386 65.453 307.163 65.642 A 1.016 1.016 0 0 0 307.1 65.7 A 4.25 4.25 0 0 1 306.709 66.045 Q 306.263 66.393 305.681 66.669 A 8.147 8.147 0 0 1 304.55 67.1 A 20.433 20.433 0 0 1 303.871 67.293 A 22.947 22.947 0 0 1 301.05 67.85 Q 299.2 68.1 297.2 68.05 Q 295.2 68 293.5 67.9 A 23.788 23.788 0 0 1 293.033 67.895 Q 292.488 67.884 291.8 67.85 Q 290.8 67.8 289.75 67.8 A 42.452 42.452 0 0 0 289.199 67.804 A 36.645 36.645 0 0 0 287.75 67.85 Q 286.8 67.9 286.2 68 Q 286.047 68 285.718 68.117 A 6.137 6.137 0 0 0 285.5 68.2 A 2.26 2.26 0 0 0 285.416 68.236 Q 285.065 68.393 285.084 68.55 A 0.154 0.154 0 0 0 285.1 68.6 Q 285.2 68.9 285.6 69.1 L 286.2 69.4 Q 289 70.4 291.85 71.2 A 20.569 20.569 0 0 0 294.665 71.774 A 26.488 26.488 0 0 0 298.2 72 A 6.461 6.461 0 0 0 298.688 71.981 Q 299.111 71.949 299.587 71.863 A 13.001 13.001 0 0 0 300.55 71.65 A 11.102 11.102 0 0 0 300.719 71.605 A 11.917 11.917 0 0 0 303.2 70.6 Q 304.5 69.9 305.6 68.85 Q 306.7 67.8 307.3 66.4 Z M 274.5 67.6 L 275.7 66.1 A 28.658 28.658 0 0 1 275.617 64.605 A 35.892 35.892 0 0 1 275.6 63.5 Q 275.6 62.1 275.75 60.95 A 20.768 20.768 0 0 1 275.849 60.275 Q 275.962 59.587 276.098 59.108 A 6.008 6.008 0 0 1 276.1 59.1 A 2.803 2.803 0 0 1 276.182 58.853 Q 276.359 58.4 276.6 58.4 Q 276.8 58.4 276.9 58.9 Q 277 59.4 277.1 60 Q 277.2 60.6 277.25 61.2 Q 277.3 61.8 277.3 62.1 A 16.207 16.207 0 0 1 277.42 62.954 A 14.012 14.012 0 0 1 277.45 63.25 A 15.023 15.023 0 0 0 277.552 64.094 A 17.357 17.357 0 0 0 277.6 64.4 Q 278.1 64.1 278.5 63.8 A 3.853 3.853 0 0 1 279.269 63.355 A 4.373 4.373 0 0 1 279.4 63.3 Q 279.5 58.8 280.5 53.9 Q 279.9 53.8 278.65 53.65 Q 277.623 53.527 276.428 53.64 A 13.852 13.852 0 0 0 275.9 53.7 Q 274.9 53.8 274.2 54.5 Q 273.5 55.2 273.4 56.2 Q 273.2 59.2 273.5 61.95 Q 273.8 64.7 274.5 67.6 Z M 359.1 68.4 A 58.436 58.436 0 0 0 361.423 70.468 A 50.522 50.522 0 0 0 362.25 71.15 Q 363.8 72.4 365.5 73.5 Q 365.653 73.653 365.865 73.836 A 10.781 10.781 0 0 0 366 73.95 Q 366.3 74.2 366.2 74.3 A 0.54 0.54 0 0 1 365.873 74.455 Q 365.789 74.465 365.693 74.455 A 1.053 1.053 0 0 1 365.65 74.45 A 11.199 11.199 0 0 1 365.366 74.405 Q 365.239 74.384 365.098 74.358 A 22.859 22.859 0 0 1 364.8 74.3 A 48.844 48.844 0 0 0 363.906 74.041 Q 363.425 73.906 363 73.8 A 6.72 6.72 0 0 1 362.006 73.463 A 8.498 8.498 0 0 1 361.35 73.15 Q 360.5 72.7 359.55 72 A 13.78 13.78 0 0 1 358.802 71.405 Q 358.405 71.067 357.971 70.656 A 28.993 28.993 0 0 1 357.4 70.1 A 23.424 23.424 0 0 1 356.615 69.273 Q 355.931 68.519 355.15 67.55 Q 353.9 66 352.85 64.45 A 33.63 33.63 0 0 1 352.126 63.337 Q 351.782 62.783 351.506 62.282 A 16.703 16.703 0 0 1 351.2 61.7 A 8.343 8.343 0 0 1 351.064 61.416 Q 350.65 60.502 350.886 60.311 A 0.192 0.192 0 0 1 350.9 60.3 A 0.069 0.069 0 0 1 350.941 60.281 Q 351.075 60.263 351.479 60.583 A 5.675 5.675 0 0 1 351.5 60.6 A 7.987 7.987 0 0 1 352.094 61.128 A 9.997 9.997 0 0 1 352.5 61.55 Q 353 62.1 353.45 62.6 Q 353.9 63.1 354.1 63.3 Q 355.5 64.8 356.7 66 L 359.1 68.4 Z M 57.935 75.967 A 51.527 51.527 0 0 0 59.7 76.8 A 1.789 1.789 0 0 0 59.792 76.834 Q 60.228 76.981 60.5 76.8 Q 60.759 76.627 60.198 76.082 A 5.149 5.149 0 0 0 60 75.9 A 21.05 21.05 0 0 1 57.694 73.91 A 26.336 26.336 0 0 1 55 70.75 A 46.133 46.133 0 0 1 53.513 68.59 A 38.186 38.186 0 0 1 51.2 64.5 A 22.659 22.659 0 0 1 50.96 64.056 Q 50.756 63.668 50.536 63.219 A 45.289 45.289 0 0 1 50.1 62.3 A 8.905 8.905 0 0 0 49.9 61.892 Q 49.431 61 49.1 61 Q 48.9 61 49.05 62 Q 49.2 63 49.4 63.8 Q 50 65.8 50.95 68.1 A 19.364 19.364 0 0 0 51.925 70.113 A 23.863 23.863 0 0 0 53.6 72.7 A 9.517 9.517 0 0 0 53.881 73.065 A 8.142 8.142 0 0 0 56.2 75.05 Q 56.997 75.502 57.935 75.967 Z M 322.4 68.6 Q 321.6 70.6 320.95 72.3 Q 320.3 74 319.8 75.4 A 1.531 1.531 0 0 1 319.723 75.535 Q 319.622 75.694 319.45 75.9 A 0.342 0.342 0 0 1 319.408 75.943 Q 319.183 76.132 319 75.4 A 10.066 10.066 0 0 1 318.852 73.855 Q 318.831 72.825 319 71.7 A 9.087 9.087 0 0 1 319.007 71.653 Q 319.287 69.855 320.443 67.101 A 43.453 43.453 0 0 1 320.7 66.5 Q 321.083 65.581 321.641 64.457 A 52.333 52.333 0 0 1 322 63.75 Q 322.8 62.2 323.7 60.85 A 35.827 35.827 0 0 1 324.354 59.901 Q 324.683 59.439 324.99 59.047 A 18.081 18.081 0 0 1 325.35 58.6 A 4.32 4.32 0 0 1 325.579 58.345 Q 326.163 57.747 326.5 58 A 0.316 0.316 0 0 1 326.493 58.055 Q 326.468 58.184 326.354 58.536 A 20.867 20.867 0 0 1 326.3 58.7 Q 326.1 59.3 325.85 60 A 60.394 60.394 0 0 1 325.413 61.187 A 54.728 54.728 0 0 1 325.35 61.35 Q 325.146 61.881 325.042 62.112 A 2.512 2.512 0 0 1 325 62.2 A 89.873 89.873 0 0 1 324.489 63.555 Q 324.204 64.291 323.938 64.934 A 48.54 48.54 0 0 1 323.7 65.5 Q 323.1 66.9 322.4 68.6 Z M 261.2 14.6 L 262.1 8.5 Q 262.5 6.5 262.7 4.65 Q 262.9 2.8 263.1 0.7 A 0.955 0.955 0 0 1 263.119 0.515 Q 263.144 0.391 263.2 0.25 Q 263.3 0 263.5 0 A 0.092 0.092 0 0 1 263.551 0.022 Q 263.649 0.095 263.842 0.405 A 6.894 6.894 0 0 1 263.9 0.5 A 0.963 0.963 0 0 1 263.981 0.725 A 0.817 0.817 0 0 1 264 0.9 Q 264.3 1.9 264.45 2.7 Q 264.6 3.5 264.65 4.4 Q 264.691 5.131 264.665 6.028 A 27.95 27.95 0 0 1 264.65 6.45 A 13.809 13.809 0 0 1 264.558 7.523 Q 264.469 8.256 264.3 9.1 A 22.817 22.817 0 0 1 264.115 10.07 Q 264.023 10.504 263.907 10.986 A 46.808 46.808 0 0 1 263.65 12 Q 263.2 13.7 262.7 15.25 A 42.036 42.036 0 0 1 262.332 16.342 Q 262.182 16.768 262.036 17.145 A 20.905 20.905 0 0 1 261.75 17.85 A 6.405 6.405 0 0 1 261.603 18.17 Q 261.287 18.809 261.053 18.809 A 0.168 0.168 0 0 1 261 18.8 Q 260.816 18.8 260.801 18.333 A 2.684 2.684 0 0 1 260.8 18.25 A 7.021 7.021 0 0 1 260.83 17.619 A 9.182 9.182 0 0 1 260.9 17.05 Q 261 16.4 261.1 15.7 Q 261.182 15.123 261.197 14.75 A 3.874 3.874 0 0 0 261.2 14.6 Z M 225 5.9 L 225.4 6.1 Q 226.7 7.3 227.65 8.5 A 5.101 5.101 0 0 1 228.21 9.406 Q 228.683 10.364 229.046 11.829 A 21.937 21.937 0 0 1 229.2 12.5 Q 229.424 13.321 229.536 14.448 A 20.683 20.683 0 0 1 229.6 15.25 A 35.995 35.995 0 0 1 229.667 17.428 A 34.326 34.326 0 0 1 229.65 18.5 A 25.874 25.874 0 0 1 229.591 19.63 Q 229.55 20.175 229.487 20.645 A 12.207 12.207 0 0 1 229.4 21.2 A 4.665 4.665 0 0 1 229.329 21.53 Q 229.154 22.208 228.865 22.208 A 0.269 0.269 0 0 1 228.8 22.2 Q 228.6 22.2 228.5 21.7 Q 228.414 21.27 228.328 20.73 A 36.135 36.135 0 0 1 228.3 20.55 Q 228.2 19.9 228.1 19.3 A 17.848 17.848 0 0 1 228.061 19.057 Q 228.011 18.727 228.002 18.563 A 1.174 1.174 0 0 1 228 18.5 Q 227.8 16.9 227.6 15.5 Q 227.4 14.1 227 12.7 Q 226.6 11 226.05 9.4 Q 225.5 7.8 224.6 6.4 Q 224.2 5.8 224.4 5.7 Q 224.553 5.7 224.825 5.818 A 3.598 3.598 0 0 1 225 5.9 Z M 141.8 86.1 Q 143 88.6 144.7 90.8 Q 144.971 91.071 144.834 91.261 A 0.329 0.329 0 0 1 144.8 91.3 A 0.651 0.651 0 0 1 144.673 91.367 Q 144.491 91.437 144.308 91.359 A 0.667 0.667 0 0 1 144.2 91.3 A 1.844 1.844 0 0 1 144.085 91.238 Q 144.028 91.204 143.982 91.17 A 0.734 0.734 0 0 1 143.9 91.1 A 17.728 17.728 0 0 1 142.845 90.45 Q 142.334 90.109 141.915 89.767 A 9.433 9.433 0 0 1 141.6 89.5 A 3.707 3.707 0 0 1 141.08 88.912 Q 140.602 88.258 140.125 87.182 A 19.075 19.075 0 0 1 139.8 86.4 Q 139.5 85.6 139.25 84.35 A 22.893 22.893 0 0 1 138.968 82.605 A 19.73 19.73 0 0 1 138.9 81.95 A 19.442 19.442 0 0 1 138.854 81.309 Q 138.822 80.698 138.84 80.205 A 8.104 8.104 0 0 1 138.85 80 A 3.229 3.229 0 0 1 138.871 79.777 Q 138.943 79.234 139.184 79.295 A 0.241 0.241 0 0 1 139.2 79.3 Q 139.669 79.3 140.007 80.357 A 5.994 5.994 0 0 1 140.05 80.5 A 209.226 209.226 0 0 0 140.172 80.918 Q 140.399 81.69 140.486 81.958 A 5.515 5.515 0 0 0 140.5 82 A 15.694 15.694 0 0 1 140.913 83.304 A 12.76 12.76 0 0 1 141.1 84.1 A 7.717 7.717 0 0 0 141.596 85.663 A 8.966 8.966 0 0 0 141.8 86.1 Z M 0.4 57.6 L 0.3 57.6 A 1.887 1.887 0 0 1 0.399 57.002 A 2.009 2.009 0 0 1 0.4 57 L 0.6 56.4 A 18.184 18.184 0 0 1 1.095 55.421 Q 1.634 54.434 2.15 53.85 A 5.655 5.655 0 0 1 2.712 53.304 Q 3.431 52.688 4.6 52 Q 5.6 51.4 7.4 50.8 A 16.732 16.732 0 0 1 8.432 50.49 Q 9.419 50.231 10.135 50.203 A 4.324 4.324 0 0 1 10.3 50.2 A 2.227 2.227 0 0 1 10.439 50.205 Q 10.609 50.216 10.85 50.25 A 0.625 0.625 0 0 1 10.991 50.286 Q 11.178 50.36 11.198 50.554 A 0.467 0.467 0 0 1 11.2 50.6 A 0.278 0.278 0 0 1 11.134 50.763 Q 10.985 50.962 10.495 51.226 A 7.76 7.76 0 0 1 10.15 51.4 Q 9.25 51.829 8.901 52.037 A 2.411 2.411 0 0 0 8.8 52.1 A 341.631 341.631 0 0 0 7.025 53.181 Q 4.55 54.7 3.2 55.6 Q 1.4 56.8 0.6 57.6 L 0.4 57.6 Z M 274.6 18.8 L 274.6 18.1 A 16.681 16.681 0 0 1 274.869 16.591 A 12.735 12.735 0 0 1 275.2 15.4 A 7.046 7.046 0 0 1 275.707 14.253 Q 276.001 13.715 276.407 13.158 A 12.461 12.461 0 0 1 276.6 12.9 Q 276.889 12.467 277.464 12.06 A 6.35 6.35 0 0 1 277.95 11.75 Q 278.9 11.2 279.8 10.8 A 8.421 8.421 0 0 1 280.447 10.542 Q 280.769 10.43 281.061 10.363 A 4.196 4.196 0 0 1 281.4 10.3 A 2.232 2.232 0 0 1 281.501 10.288 Q 282.1 10.23 282.1 10.6 Q 282.279 10.869 281.656 11.458 A 5.422 5.422 0 0 1 281.5 11.6 Q 280.703 12.297 280.303 12.498 A 1.509 1.509 0 0 1 280.3 12.5 Q 279.5 13.1 278.8 13.65 A 6.796 6.796 0 0 0 277.885 14.524 A 8.156 8.156 0 0 0 277.5 15 A 13.676 13.676 0 0 0 276.608 16.111 A 11.214 11.214 0 0 0 276.15 16.8 A 17.215 17.215 0 0 0 275.482 18.003 A 21.107 21.107 0 0 0 275.1 18.8 A 4.246 4.246 0 0 1 275.028 19.029 Q 274.914 19.357 274.799 19.457 A 0.152 0.152 0 0 1 274.7 19.5 A 0.05 0.05 0 0 1 274.66 19.465 Q 274.611 19.367 274.602 18.987 A 7.821 7.821 0 0 1 274.6 18.8 Z M 102.741 62.844 A 0.631 0.631 0 0 0 102.7 62.9 Q 101.9 64 100.95 64.8 Q 100 65.6 99.2 66.4 Q 98.4 67 97.6 67.45 Q 96.8 67.9 96 68.4 Q 95.6 68.6 94.65 69.1 Q 93.7 69.6 93.8 69.9 A 0.322 0.322 0 0 0 93.892 70.138 Q 94.007 70.252 94.262 70.286 A 1.83 1.83 0 0 0 94.5 70.3 A 5.209 5.209 0 0 0 94.704 70.296 Q 95.328 70.272 96.1 70.1 A 10.839 10.839 0 0 0 96.907 69.887 A 13.693 13.693 0 0 0 98 69.5 Q 99 69.1 99.7 68.6 A 10.382 10.382 0 0 0 100.548 67.955 Q 100.977 67.59 101.29 67.224 A 4.078 4.078 0 0 0 101.85 66.4 A 24.048 24.048 0 0 0 102.006 66.083 Q 102.241 65.595 102.485 65.036 A 43.417 43.417 0 0 0 103 63.8 Q 103.125 63.488 103.113 63.234 A 0.808 0.808 0 0 0 103.05 62.95 A 0.766 0.766 0 0 0 103.021 62.889 Q 102.897 62.659 102.741 62.844 Z M 276.357 47.875 A 0.437 0.437 0 0 0 276.4 47.7 A 0.283 0.283 0 0 0 276.249 47.532 Q 276.087 47.451 275.767 47.485 A 2.433 2.433 0 0 0 275.65 47.5 A 4.525 4.525 0 0 0 275.334 47.561 Q 274.801 47.682 274.15 47.95 A 9.474 9.474 0 0 0 273.672 48.163 A 10.92 10.92 0 0 0 272.45 48.85 A 20.788 20.788 0 0 0 272.216 49.004 Q 271.872 49.233 271.573 49.453 A 12.05 12.05 0 0 0 271 49.9 A 10.173 10.173 0 0 0 270.764 50.144 Q 269.658 51.327 269.25 52.55 Q 268.941 53.478 268.749 54.146 A 17.128 17.128 0 0 0 268.6 54.7 Q 268.525 54.925 268.506 55.347 A 6.853 6.853 0 0 0 268.5 55.65 Q 268.5 56.241 268.913 55.551 A 5.389 5.389 0 0 0 269 55.4 A 7.954 7.954 0 0 1 269.439 54.564 A 6.173 6.173 0 0 1 270.2 53.55 A 56.213 56.213 0 0 1 270.579 53.148 A 65.18 65.18 0 0 1 271.7 52 A 2.704 2.704 0 0 1 271.792 51.913 Q 272.037 51.69 272.65 51.2 Q 273.4 50.6 274.25 49.9 A 48.288 48.288 0 0 0 274.277 49.878 Q 275.11 49.191 275.75 48.6 A 6.343 6.343 0 0 0 275.869 48.488 Q 276.248 48.119 276.357 47.875 Z M 272.1 75.4 L 272 75.4 L 272 75.3 L 272 75.1 Q 272.383 73.952 272.795 73.096 A 10.374 10.374 0 0 1 273.05 72.6 A 4.789 4.789 0 0 1 273.569 71.852 Q 273.858 71.504 274.244 71.144 A 11.783 11.783 0 0 1 275 70.5 A 18.019 18.019 0 0 1 275.606 70.114 Q 275.929 69.917 276.295 69.71 A 30.258 30.258 0 0 1 276.4 69.65 A 8.65 8.65 0 0 1 277.575 69.097 A 7.582 7.582 0 0 1 278 68.95 Q 278.8 68.7 279.4 68.7 Q 279.685 68.7 279.857 68.79 A 0.461 0.461 0 0 1 280.1 69.1 A 0.39 0.39 0 0 1 280.046 69.286 Q 279.912 69.53 279.45 69.85 Q 278.8 70.3 278 70.8 Q 277.2 71.3 276.45 71.75 Q 275.759 72.164 275.45 72.367 A 7.365 7.365 0 0 0 275.4 72.4 Q 274.6 73.1 274 73.6 A 6.303 6.303 0 0 0 273.438 74.135 Q 273.169 74.422 272.9 74.769 A 10.785 10.785 0 0 0 272.8 74.9 A 5.478 5.478 0 0 1 272.609 75.083 Q 272.336 75.33 272.179 75.385 A 0.245 0.245 0 0 1 272.1 75.4 Z" vector-effect="non-scaling-stroke"/></g></svg>